<svg width="1060" height="844" viewBox="0 0 1060 844" fill="none" xmlns="http://www.w3.org/2000/svg">
<g filter="url(#filter0_d_1581_4719)">
<g clip-path="url(#clip0_1581_4719)">
<rect x="8" y="8" width="1044" height="828" rx="8" fill="white"/>
<rect x="8" y="8" width="1074" height="423" fill="#DDDBF4" fill-opacity="0.2"/>
<g filter="url(#filter1_f_1581_4719)">
<path d="M908.295 431.85L795.556 271.825L1144.78 14.0335L1085.15 -81.6212L887.028 51.5328C789.782 125.487 670.481 134.501 596.506 37.2289L554.225 -9.90845L479.651 50.5348L622.222 248.244L260.383 540.19L346.809 639.969L692.541 333.03L810.059 493.705L908.295 431.85Z" fill="#513FEF" fill-opacity="0.05"/>
</g>
<path d="M482.224 157.288C480.96 157.288 479.784 157.056 478.696 156.592C477.624 156.128 476.68 155.488 475.864 154.672C475.064 153.84 474.44 152.864 473.992 151.744C473.544 150.624 473.32 149.392 473.32 148.048C473.32 146.72 473.536 145.496 473.968 144.376C474.416 143.24 475.04 142.264 475.84 141.448C476.64 140.616 477.576 139.976 478.648 139.528C479.72 139.064 480.896 138.832 482.176 138.832C483.44 138.832 484.568 139.048 485.56 139.48C486.568 139.912 487.416 140.48 488.104 141.184C488.792 141.872 489.288 142.624 489.592 143.44L487.072 144.664C486.704 143.688 486.096 142.904 485.248 142.312C484.4 141.704 483.376 141.4 482.176 141.4C480.992 141.4 479.944 141.68 479.032 142.24C478.12 142.8 477.408 143.576 476.896 144.568C476.4 145.56 476.152 146.72 476.152 148.048C476.152 149.376 476.408 150.544 476.92 151.552C477.448 152.544 478.168 153.32 479.08 153.88C479.992 154.424 481.04 154.696 482.224 154.696C483.216 154.696 484.12 154.496 484.936 154.096C485.768 153.68 486.432 153.104 486.928 152.368C487.424 151.616 487.672 150.744 487.672 149.752V148.528L488.944 149.68H482.176V147.28H490.48V148.96C490.48 150.272 490.256 151.448 489.808 152.488C489.36 153.512 488.752 154.384 487.984 155.104C487.216 155.824 486.336 156.368 485.344 156.736C484.352 157.104 483.312 157.288 482.224 157.288ZM493.107 157V144.016H495.699V146.632L495.459 146.248C495.747 145.4 496.211 144.792 496.851 144.424C497.491 144.04 498.259 143.848 499.155 143.848H499.947V146.32H498.819C497.923 146.32 497.195 146.6 496.635 147.16C496.091 147.704 495.819 148.488 495.819 149.512V157H493.107ZM505.691 157.288C504.811 157.288 504.035 157.136 503.363 156.832C502.707 156.512 502.195 156.08 501.827 155.536C501.459 154.976 501.275 154.32 501.275 153.568C501.275 152.864 501.427 152.232 501.731 151.672C502.051 151.112 502.539 150.64 503.195 150.256C503.851 149.872 504.675 149.6 505.667 149.44L510.179 148.696V150.832L506.195 151.528C505.475 151.656 504.947 151.888 504.611 152.224C504.275 152.544 504.107 152.96 504.107 153.472C504.107 153.968 504.291 154.376 504.659 154.696C505.043 155 505.531 155.152 506.123 155.152C506.859 155.152 507.499 154.992 508.043 154.672C508.603 154.352 509.035 153.928 509.339 153.4C509.643 152.856 509.795 152.256 509.795 151.6V148.264C509.795 147.624 509.555 147.104 509.075 146.704C508.611 146.288 507.987 146.08 507.203 146.08C506.483 146.08 505.851 146.272 505.307 146.656C504.779 147.024 504.387 147.504 504.131 148.096L501.875 146.968C502.115 146.328 502.507 145.768 503.051 145.288C503.595 144.792 504.227 144.408 504.947 144.136C505.683 143.864 506.459 143.728 507.275 143.728C508.299 143.728 509.203 143.92 509.987 144.304C510.787 144.688 511.403 145.224 511.835 145.912C512.283 146.584 512.507 147.368 512.507 148.264V157H509.915V154.648L510.467 154.72C510.163 155.248 509.771 155.704 509.291 156.088C508.827 156.472 508.291 156.768 507.683 156.976C507.091 157.184 506.427 157.288 505.691 157.288ZM521.678 157.288C520.43 157.288 519.31 156.992 518.318 156.4C517.342 155.792 516.566 154.976 515.99 153.952C515.43 152.928 515.15 151.776 515.15 150.496C515.15 149.216 515.438 148.064 516.014 147.04C516.59 146.016 517.366 145.208 518.342 144.616C519.318 144.024 520.422 143.728 521.654 143.728C522.694 143.728 523.614 143.936 524.414 144.352C525.214 144.768 525.846 145.344 526.31 146.08L525.902 146.704V138.832H528.59V157H526.022V154.36L526.334 154.864C525.886 155.648 525.246 156.248 524.414 156.664C523.582 157.08 522.67 157.288 521.678 157.288ZM521.942 154.768C522.694 154.768 523.366 154.584 523.958 154.216C524.566 153.848 525.038 153.344 525.374 152.704C525.726 152.048 525.902 151.312 525.902 150.496C525.902 149.68 525.726 148.952 525.374 148.312C525.038 147.672 524.566 147.168 523.958 146.8C523.366 146.432 522.694 146.248 521.942 146.248C521.19 146.248 520.51 146.432 519.902 146.8C519.294 147.168 518.822 147.672 518.486 148.312C518.15 148.952 517.982 149.68 517.982 150.496C517.982 151.312 518.15 152.048 518.486 152.704C518.822 153.344 519.286 153.848 519.878 154.216C520.486 154.584 521.174 154.768 521.942 154.768ZM531.756 157V144.016H534.468V157H531.756ZM531.756 142.24V139.12H534.468V142.24H531.756ZM543.735 157.288C542.439 157.288 541.287 156.992 540.279 156.4C539.287 155.792 538.511 154.976 537.951 153.952C537.391 152.912 537.111 151.752 537.111 150.472C537.111 149.16 537.391 148 537.951 146.992C538.527 145.984 539.295 145.192 540.255 144.616C541.215 144.024 542.303 143.728 543.519 143.728C544.495 143.728 545.367 143.896 546.135 144.232C546.903 144.568 547.551 145.032 548.079 145.624C548.607 146.2 549.007 146.864 549.279 147.616C549.567 148.368 549.711 149.168 549.711 150.016C549.711 150.224 549.703 150.44 549.687 150.664C549.671 150.888 549.639 151.096 549.591 151.288H539.247V149.128H548.055L546.759 150.112C546.919 149.328 546.863 148.632 546.591 148.024C546.335 147.4 545.935 146.912 545.391 146.56C544.863 146.192 544.239 146.008 543.519 146.008C542.799 146.008 542.159 146.192 541.599 146.56C541.039 146.912 540.607 147.424 540.303 148.096C539.999 148.752 539.879 149.552 539.943 150.496C539.863 151.376 539.983 152.144 540.303 152.8C540.639 153.456 541.103 153.968 541.695 154.336C542.303 154.704 542.991 154.888 543.759 154.888C544.543 154.888 545.207 154.712 545.751 154.36C546.311 154.008 546.751 153.552 547.071 152.992L549.279 154.072C549.023 154.68 548.623 155.232 548.079 155.728C547.551 156.208 546.911 156.592 546.159 156.88C545.423 157.152 544.615 157.288 543.735 157.288ZM552.357 157V144.016H554.949V146.56L554.637 146.224C554.957 145.408 555.469 144.792 556.173 144.376C556.877 143.944 557.693 143.728 558.621 143.728C559.581 143.728 560.429 143.936 561.165 144.352C561.901 144.768 562.477 145.344 562.893 146.08C563.309 146.816 563.517 147.664 563.517 148.624V157H560.829V149.344C560.829 148.688 560.709 148.136 560.469 147.688C560.229 147.224 559.885 146.872 559.437 146.632C559.005 146.376 558.509 146.248 557.949 146.248C557.389 146.248 556.885 146.376 556.437 146.632C556.005 146.872 555.669 147.224 555.429 147.688C555.189 148.152 555.069 148.704 555.069 149.344V157H552.357ZM572.036 157.144C570.676 157.144 569.62 156.76 568.868 155.992C568.116 155.224 567.74 154.144 567.74 152.752V146.464H565.46V144.016H565.82C566.428 144.016 566.9 143.84 567.236 143.488C567.572 143.136 567.74 142.656 567.74 142.048V141.04H570.452V144.016H573.404V146.464H570.452V152.632C570.452 153.08 570.524 153.464 570.668 153.784C570.812 154.088 571.044 154.328 571.364 154.504C571.684 154.664 572.1 154.744 572.612 154.744C572.74 154.744 572.884 154.736 573.044 154.72C573.204 154.704 573.356 154.688 573.5 154.672V157C573.276 157.032 573.028 157.064 572.756 157.096C572.484 157.128 572.244 157.144 572.036 157.144ZM580.947 157.288C579.619 157.288 578.451 156.96 577.443 156.304C576.451 155.648 575.755 154.768 575.354 153.664L577.443 152.68C577.795 153.416 578.275 154 578.883 154.432C579.507 154.864 580.195 155.08 580.947 155.08C581.587 155.08 582.107 154.936 582.507 154.648C582.907 154.36 583.107 153.968 583.107 153.472C583.107 153.152 583.019 152.896 582.843 152.704C582.667 152.496 582.443 152.328 582.171 152.2C581.915 152.072 581.651 151.976 581.379 151.912L579.339 151.336C578.219 151.016 577.379 150.536 576.819 149.896C576.275 149.24 576.003 148.48 576.003 147.616C576.003 146.832 576.203 146.152 576.603 145.576C577.003 144.984 577.555 144.528 578.259 144.208C578.963 143.888 579.755 143.728 580.635 143.728C581.819 143.728 582.875 144.024 583.803 144.616C584.731 145.192 585.387 146 585.771 147.04L583.683 148.024C583.427 147.4 583.019 146.904 582.459 146.536C581.915 146.168 581.299 145.984 580.611 145.984C580.019 145.984 579.547 146.128 579.195 146.416C578.843 146.688 578.667 147.048 578.667 147.496C578.667 147.8 578.747 148.056 578.907 148.264C579.067 148.456 579.275 148.616 579.531 148.744C579.787 148.856 580.051 148.952 580.323 149.032L582.435 149.656C583.507 149.96 584.331 150.44 584.907 151.096C585.483 151.736 585.771 152.504 585.771 153.4C585.771 154.168 585.563 154.848 585.147 155.44C584.747 156.016 584.187 156.472 583.467 156.808C582.747 157.128 581.907 157.288 580.947 157.288Z" fill="black"/>
<g filter="url(#filter2_d_1581_4719)">
<rect x="59" y="247" width="110" height="350" rx="10" fill="url(#paint0_linear_1581_4719)"/>
</g>
<g filter="url(#filter3_d_1581_4719)">
<rect x="178" y="247" width="109" height="350" rx="10" fill="url(#paint1_linear_1581_4719)"/>
</g>
<g filter="url(#filter4_d_1581_4719)">
<rect x="297" y="247" width="109" height="350" rx="10" fill="url(#paint2_linear_1581_4719)"/>
</g>
<g filter="url(#filter5_d_1581_4719)">
<rect x="416" y="247" width="109" height="350" rx="10" fill="url(#paint3_linear_1581_4719)"/>
</g>
<g filter="url(#filter6_d_1581_4719)">
<rect x="534" y="247" width="110" height="350" rx="10" fill="url(#paint4_linear_1581_4719)"/>
</g>
<g filter="url(#filter7_d_1581_4719)">
<rect x="772" y="247" width="110" height="350" rx="10" fill="url(#paint5_linear_1581_4719)"/>
</g>
<g filter="url(#filter8_d_1581_4719)">
<rect x="654" y="247" width="108" height="350" rx="10" fill="url(#paint6_linear_1581_4719)"/>
</g>
<g filter="url(#filter9_d_1581_4719)">
<rect x="891" y="247" width="109" height="350" rx="10" fill="url(#paint7_linear_1581_4719)"/>
</g>
<path d="M87.236 582L87.908 579.66H86.468V578.82H88.148L88.892 576.24H87.452V575.4H89.132L89.804 573.06H90.764L90.092 575.4H92.612L93.284 573.06H94.244L93.572 575.4H95.012V576.24H93.332L92.588 578.82H94.028V579.66H92.348L91.676 582H90.716L91.388 579.66H88.868L88.196 582H87.236ZM89.108 578.82H91.628L92.372 576.24H89.852L89.108 578.82ZM100.616 582.144C99.9845 582.144 99.4045 582.032 98.8765 581.808C98.3485 581.576 97.8885 581.256 97.4965 580.848C97.1125 580.432 96.8125 579.944 96.5965 579.384C96.3805 578.824 96.2725 578.208 96.2725 577.536C96.2725 576.864 96.3805 576.248 96.5965 575.688C96.8125 575.128 97.1125 574.64 97.4965 574.224C97.8885 573.808 98.3485 573.488 98.8765 573.264C99.4045 573.032 99.9845 572.916 100.616 572.916C101.224 572.916 101.768 573.024 102.248 573.24C102.736 573.456 103.144 573.736 103.472 574.08C103.808 574.416 104.048 574.772 104.192 575.148L103.292 575.544C103.068 575.024 102.724 574.608 102.26 574.296C101.804 573.976 101.256 573.816 100.616 573.816C99.9605 573.816 99.3765 573.972 98.8645 574.284C98.3525 574.596 97.9525 575.032 97.6645 575.592C97.3765 576.144 97.2325 576.792 97.2325 577.536C97.2325 578.272 97.3765 578.92 97.6645 579.48C97.9525 580.04 98.3525 580.476 98.8645 580.788C99.3765 581.092 99.9605 581.244 100.616 581.244C101.256 581.244 101.804 581.088 102.26 580.776C102.724 580.464 103.068 580.048 103.292 579.528L104.192 579.924C104.048 580.292 103.808 580.648 103.472 580.992C103.144 581.328 102.736 581.604 102.248 581.82C101.768 582.036 101.224 582.144 100.616 582.144ZM105.551 582V581.4L108.047 578.652C108.535 578.116 108.931 577.672 109.235 577.32C109.547 576.968 109.779 576.648 109.931 576.36C110.083 576.072 110.159 575.76 110.159 575.424C110.159 574.888 110.003 574.476 109.691 574.188C109.379 573.9 108.963 573.756 108.443 573.756C107.907 573.756 107.455 573.908 107.087 574.212C106.727 574.516 106.483 574.94 106.355 575.484L105.479 575.292C105.583 574.804 105.771 574.384 106.043 574.032C106.315 573.68 106.655 573.408 107.063 573.216C107.471 573.016 107.927 572.916 108.431 572.916C108.967 572.916 109.435 573.024 109.835 573.24C110.235 573.456 110.547 573.752 110.771 574.128C111.003 574.504 111.119 574.936 111.119 575.424C111.119 575.76 111.047 576.084 110.903 576.396C110.767 576.708 110.559 577.044 110.279 577.404C109.999 577.764 109.639 578.184 109.199 578.664L106.931 581.16H111.359V582H105.551ZM115.819 582.144C115.243 582.144 114.727 582.028 114.271 581.796C113.823 581.556 113.467 581.232 113.203 580.824C112.947 580.408 112.819 579.94 112.819 579.42C112.819 578.852 112.979 578.344 113.299 577.896C113.627 577.448 114.067 577.136 114.619 576.96V577.212C114.195 577.028 113.867 576.756 113.635 576.396C113.403 576.028 113.287 575.636 113.287 575.22C113.287 574.78 113.399 574.388 113.623 574.044C113.847 573.7 114.147 573.428 114.523 573.228C114.907 573.02 115.339 572.916 115.819 572.916C116.307 572.916 116.739 573.016 117.115 573.216C117.491 573.408 117.787 573.68 118.003 574.032C118.227 574.376 118.339 574.772 118.339 575.22C118.339 575.668 118.219 576.068 117.979 576.42C117.739 576.764 117.423 577.028 117.031 577.212L117.019 576.96C117.571 577.136 118.007 577.448 118.327 577.896C118.655 578.344 118.819 578.852 118.819 579.42C118.819 579.94 118.687 580.408 118.423 580.824C118.167 581.232 117.811 581.556 117.355 581.796C116.907 582.028 116.395 582.144 115.819 582.144ZM115.819 581.304C116.227 581.304 116.583 581.228 116.887 581.076C117.191 580.916 117.427 580.696 117.595 580.416C117.771 580.128 117.859 579.796 117.859 579.42C117.859 579.044 117.771 578.716 117.595 578.436C117.427 578.148 117.191 577.928 116.887 577.776C116.583 577.616 116.227 577.536 115.819 577.536C115.411 577.536 115.051 577.616 114.739 577.776C114.435 577.928 114.199 578.148 114.031 578.436C113.863 578.716 113.779 579.044 113.779 579.42C113.779 579.796 113.863 580.128 114.031 580.416C114.199 580.696 114.435 580.916 114.739 581.076C115.051 581.228 115.411 581.304 115.819 581.304ZM115.819 576.696C116.115 576.696 116.379 576.636 116.611 576.516C116.843 576.388 117.027 576.216 117.163 576C117.307 575.776 117.379 575.516 117.379 575.22C117.379 574.924 117.307 574.668 117.163 574.452C117.027 574.236 116.843 574.068 116.611 573.948C116.379 573.82 116.115 573.756 115.819 573.756C115.523 573.756 115.255 573.82 115.015 573.948C114.783 574.068 114.595 574.236 114.451 574.452C114.315 574.668 114.247 574.924 114.247 575.22C114.247 575.516 114.315 575.776 114.451 576C114.595 576.216 114.783 576.388 115.015 576.516C115.255 576.636 115.523 576.696 115.819 576.696ZM123.354 582.144C122.778 582.144 122.262 582.028 121.806 581.796C121.358 581.556 121.002 581.232 120.738 580.824C120.482 580.408 120.354 579.94 120.354 579.42C120.354 578.852 120.514 578.344 120.834 577.896C121.162 577.448 121.602 577.136 122.154 576.96V577.212C121.73 577.028 121.402 576.756 121.17 576.396C120.938 576.028 120.822 575.636 120.822 575.22C120.822 574.78 120.934 574.388 121.158 574.044C121.382 573.7 121.682 573.428 122.058 573.228C122.442 573.02 122.874 572.916 123.354 572.916C123.842 572.916 124.274 573.016 124.65 573.216C125.026 573.408 125.322 573.68 125.538 574.032C125.762 574.376 125.874 574.772 125.874 575.22C125.874 575.668 125.754 576.068 125.514 576.42C125.274 576.764 124.958 577.028 124.566 577.212L124.554 576.96C125.106 577.136 125.542 577.448 125.862 577.896C126.19 578.344 126.354 578.852 126.354 579.42C126.354 579.94 126.222 580.408 125.958 580.824C125.702 581.232 125.346 581.556 124.89 581.796C124.442 582.028 123.93 582.144 123.354 582.144ZM123.354 581.304C123.762 581.304 124.118 581.228 124.422 581.076C124.726 580.916 124.962 580.696 125.13 580.416C125.306 580.128 125.394 579.796 125.394 579.42C125.394 579.044 125.306 578.716 125.13 578.436C124.962 578.148 124.726 577.928 124.422 577.776C124.118 577.616 123.762 577.536 123.354 577.536C122.946 577.536 122.586 577.616 122.274 577.776C121.97 577.928 121.734 578.148 121.566 578.436C121.398 578.716 121.314 579.044 121.314 579.42C121.314 579.796 121.398 580.128 121.566 580.416C121.734 580.696 121.97 580.916 122.274 581.076C122.586 581.228 122.946 581.304 123.354 581.304ZM123.354 576.696C123.65 576.696 123.914 576.636 124.146 576.516C124.378 576.388 124.562 576.216 124.698 576C124.842 575.776 124.914 575.516 124.914 575.22C124.914 574.924 124.842 574.668 124.698 574.452C124.562 574.236 124.378 574.068 124.146 573.948C123.914 573.82 123.65 573.756 123.354 573.756C123.058 573.756 122.79 573.82 122.55 573.948C122.318 574.068 122.13 574.236 121.986 574.452C121.85 574.668 121.782 574.924 121.782 575.22C121.782 575.516 121.85 575.776 121.986 576C122.13 576.216 122.318 576.388 122.55 576.516C122.79 576.636 123.058 576.696 123.354 576.696ZM128.177 582V573.06H133.697V573.96H129.137V577.068H133.337V577.968H129.137V582H128.177ZM137.862 582.144C137.286 582.144 136.77 582.028 136.314 581.796C135.866 581.556 135.51 581.232 135.246 580.824C134.99 580.408 134.862 579.94 134.862 579.42C134.862 578.852 135.022 578.344 135.342 577.896C135.67 577.448 136.11 577.136 136.662 576.96V577.212C136.238 577.028 135.91 576.756 135.678 576.396C135.446 576.028 135.33 575.636 135.33 575.22C135.33 574.78 135.442 574.388 135.666 574.044C135.89 573.7 136.19 573.428 136.566 573.228C136.95 573.02 137.382 572.916 137.862 572.916C138.35 572.916 138.782 573.016 139.158 573.216C139.534 573.408 139.83 573.68 140.046 574.032C140.27 574.376 140.382 574.772 140.382 575.22C140.382 575.668 140.262 576.068 140.022 576.42C139.782 576.764 139.466 577.028 139.074 577.212L139.062 576.96C139.614 577.136 140.05 577.448 140.37 577.896C140.698 578.344 140.862 578.852 140.862 579.42C140.862 579.94 140.73 580.408 140.466 580.824C140.21 581.232 139.854 581.556 139.398 581.796C138.95 582.028 138.438 582.144 137.862 582.144ZM137.862 581.304C138.27 581.304 138.626 581.228 138.93 581.076C139.234 580.916 139.47 580.696 139.638 580.416C139.814 580.128 139.902 579.796 139.902 579.42C139.902 579.044 139.814 578.716 139.638 578.436C139.47 578.148 139.234 577.928 138.93 577.776C138.626 577.616 138.27 577.536 137.862 577.536C137.454 577.536 137.094 577.616 136.782 577.776C136.478 577.928 136.242 578.148 136.074 578.436C135.906 578.716 135.822 579.044 135.822 579.42C135.822 579.796 135.906 580.128 136.074 580.416C136.242 580.696 136.478 580.916 136.782 581.076C137.094 581.228 137.454 581.304 137.862 581.304ZM137.862 576.696C138.158 576.696 138.422 576.636 138.654 576.516C138.886 576.388 139.07 576.216 139.206 576C139.35 575.776 139.422 575.516 139.422 575.22C139.422 574.924 139.35 574.668 139.206 574.452C139.07 574.236 138.886 574.068 138.654 573.948C138.422 573.82 138.158 573.756 137.862 573.756C137.566 573.756 137.298 573.82 137.058 573.948C136.826 574.068 136.638 574.236 136.494 574.452C136.358 574.668 136.29 574.924 136.29 575.22C136.29 575.516 136.358 575.776 136.494 576C136.638 576.216 136.826 576.388 137.058 576.516C137.298 576.636 137.566 576.696 137.862 576.696Z" fill="black"/>
<path d="M208.236 582L208.908 579.66H207.468V578.82H209.148L209.892 576.24H208.452V575.4H210.132L210.804 573.06H211.764L211.092 575.4H213.612L214.284 573.06H215.244L214.572 575.4H216.012V576.24H214.332L213.588 578.82H215.028V579.66H213.348L212.676 582H211.716L212.388 579.66H209.868L209.196 582H208.236ZM210.108 578.82H212.628L213.372 576.24H210.852L210.108 578.82ZM220.104 582.144C219.64 582.144 219.208 582.064 218.808 581.904C218.416 581.744 218.072 581.516 217.776 581.22C217.48 580.924 217.256 580.572 217.104 580.164L217.836 579.804C218.02 580.268 218.32 580.636 218.736 580.908C219.16 581.172 219.616 581.304 220.104 581.304C220.496 581.304 220.844 581.212 221.148 581.028C221.46 580.844 221.704 580.596 221.88 580.284C222.056 579.964 222.144 579.608 222.144 579.216C222.144 578.808 222.052 578.448 221.868 578.136C221.692 577.824 221.452 577.58 221.148 577.404C220.844 577.22 220.5 577.128 220.116 577.128C219.724 577.128 219.36 577.22 219.024 577.404C218.696 577.58 218.456 577.796 218.304 578.052L217.548 577.908L218.22 573.06H222.744V573.9H218.568L218.94 573.576L218.4 577.392L218.028 577.224C218.308 576.88 218.636 576.636 219.012 576.492C219.388 576.34 219.772 576.264 220.164 576.264C220.74 576.264 221.248 576.4 221.688 576.672C222.128 576.936 222.472 577.292 222.72 577.74C222.976 578.18 223.104 578.672 223.104 579.216C223.104 579.768 222.972 580.268 222.708 580.716C222.452 581.156 222.096 581.504 221.64 581.76C221.192 582.016 220.68 582.144 220.104 582.144ZM226.047 582V573.9H224.367V573.06H227.007V582H226.047ZM231.856 582.144C231.392 582.144 230.964 582.064 230.572 581.904C230.18 581.744 229.836 581.516 229.54 581.22C229.252 580.924 229.032 580.572 228.88 580.164L229.648 579.804C229.832 580.268 230.12 580.636 230.512 580.908C230.904 581.172 231.352 581.304 231.856 581.304C232.256 581.304 232.612 581.228 232.924 581.076C233.236 580.916 233.48 580.688 233.656 580.392C233.832 580.096 233.92 579.736 233.92 579.312C233.92 578.888 233.828 578.528 233.644 578.232C233.468 577.936 233.224 577.712 232.912 577.56C232.6 577.408 232.244 577.332 231.844 577.332C231.74 577.332 231.624 577.336 231.496 577.344C231.376 577.352 231.276 577.364 231.196 577.38L231.004 576.96L233.416 573.9H229.3V573.06H234.496V573.9L232.24 576.744L232.12 576.588C232.656 576.604 233.132 576.732 233.548 576.972C233.964 577.204 234.288 577.52 234.52 577.92C234.76 578.32 234.88 578.784 234.88 579.312C234.88 579.84 234.752 580.32 234.496 580.752C234.24 581.176 233.884 581.516 233.428 581.772C232.972 582.02 232.448 582.144 231.856 582.144ZM236.697 582V573.06H242.217V573.96H237.657V577.068H241.857V577.968H237.657V582H236.697ZM243.669 582V573.06H249.429V573.96H244.629V577.068H249.189V577.968H244.629V581.1H249.429V582H243.669ZM251.017 582V573.06H256.537V573.96H251.977V577.068H256.177V577.968H251.977V582H251.017Z" fill="white"/>
<path d="M327.236 582L327.908 579.66H326.468V578.82H328.148L328.892 576.24H327.452V575.4H329.132L329.804 573.06H330.764L330.092 575.4H332.612L333.284 573.06H334.244L333.572 575.4H335.012V576.24H333.332L332.588 578.82H334.028V579.66H332.348L331.676 582H330.716L331.388 579.66H328.868L328.196 582H327.236ZM329.108 578.82H331.628L332.372 576.24H329.852L329.108 578.82ZM339.104 582.144C338.64 582.144 338.208 582.064 337.808 581.904C337.416 581.744 337.072 581.516 336.776 581.22C336.48 580.924 336.256 580.572 336.104 580.164L336.836 579.804C337.02 580.268 337.32 580.636 337.736 580.908C338.16 581.172 338.616 581.304 339.104 581.304C339.496 581.304 339.844 581.212 340.148 581.028C340.46 580.844 340.704 580.596 340.88 580.284C341.056 579.964 341.144 579.608 341.144 579.216C341.144 578.808 341.052 578.448 340.868 578.136C340.692 577.824 340.452 577.58 340.148 577.404C339.844 577.22 339.5 577.128 339.116 577.128C338.724 577.128 338.36 577.22 338.024 577.404C337.696 577.58 337.456 577.796 337.304 578.052L336.548 577.908L337.22 573.06H341.744V573.9H337.568L337.94 573.576L337.4 577.392L337.028 577.224C337.308 576.88 337.636 576.636 338.012 576.492C338.388 576.34 338.772 576.264 339.164 576.264C339.74 576.264 340.248 576.4 340.688 576.672C341.128 576.936 341.472 577.292 341.72 577.74C341.976 578.18 342.104 578.672 342.104 579.216C342.104 579.768 341.972 580.268 341.708 580.716C341.452 581.156 341.096 581.504 340.64 581.76C340.192 582.016 339.68 582.144 339.104 582.144ZM345.047 582V573.9H343.367V573.06H346.007V582H345.047ZM350.856 582.144C350.392 582.144 349.964 582.064 349.572 581.904C349.18 581.744 348.836 581.516 348.54 581.22C348.252 580.924 348.032 580.572 347.88 580.164L348.648 579.804C348.832 580.268 349.12 580.636 349.512 580.908C349.904 581.172 350.352 581.304 350.856 581.304C351.256 581.304 351.612 581.228 351.924 581.076C352.236 580.916 352.48 580.688 352.656 580.392C352.832 580.096 352.92 579.736 352.92 579.312C352.92 578.888 352.828 578.528 352.644 578.232C352.468 577.936 352.224 577.712 351.912 577.56C351.6 577.408 351.244 577.332 350.844 577.332C350.74 577.332 350.624 577.336 350.496 577.344C350.376 577.352 350.276 577.364 350.196 577.38L350.004 576.96L352.416 573.9H348.3V573.06H353.496V573.9L351.24 576.744L351.12 576.588C351.656 576.604 352.132 576.732 352.548 576.972C352.964 577.204 353.288 577.52 353.52 577.92C353.76 578.32 353.88 578.784 353.88 579.312C353.88 579.84 353.752 580.32 353.496 580.752C353.24 581.176 352.884 581.516 352.428 581.772C351.972 582.02 351.448 582.144 350.856 582.144ZM355.697 582V573.06H361.217V573.96H356.657V577.068H360.857V577.968H356.657V582H355.697ZM362.669 582V573.06H368.429V573.96H363.629V577.068H368.189V577.968H363.629V581.1H368.429V582H362.669ZM370.017 582V573.06H375.537V573.96H370.977V577.068H375.177V577.968H370.977V582H370.017Z" fill="white"/>
<path d="M443.236 582L443.908 579.66H442.468V578.82H444.148L444.892 576.24H443.452V575.4H445.132L445.804 573.06H446.764L446.092 575.4H448.612L449.284 573.06H450.244L449.572 575.4H451.012V576.24H449.332L448.588 578.82H450.028V579.66H448.348L447.676 582H446.716L447.388 579.66H444.868L444.196 582H443.236ZM445.108 578.82H447.628L448.372 576.24H445.852L445.108 578.82ZM456.616 582.144C455.984 582.144 455.404 582.032 454.876 581.808C454.348 581.576 453.888 581.256 453.496 580.848C453.112 580.432 452.812 579.944 452.596 579.384C452.38 578.824 452.272 578.208 452.272 577.536C452.272 576.864 452.38 576.248 452.596 575.688C452.812 575.128 453.112 574.64 453.496 574.224C453.888 573.808 454.348 573.488 454.876 573.264C455.404 573.032 455.984 572.916 456.616 572.916C457.224 572.916 457.768 573.024 458.248 573.24C458.736 573.456 459.144 573.736 459.472 574.08C459.808 574.416 460.048 574.772 460.192 575.148L459.292 575.544C459.068 575.024 458.724 574.608 458.26 574.296C457.804 573.976 457.256 573.816 456.616 573.816C455.96 573.816 455.376 573.972 454.864 574.284C454.352 574.596 453.952 575.032 453.664 575.592C453.376 576.144 453.232 576.792 453.232 577.536C453.232 578.272 453.376 578.92 453.664 579.48C453.952 580.04 454.352 580.476 454.864 580.788C455.376 581.092 455.96 581.244 456.616 581.244C457.256 581.244 457.804 581.088 458.26 580.776C458.724 580.464 459.068 580.048 459.292 579.528L460.192 579.924C460.048 580.292 459.808 580.648 459.472 580.992C459.144 581.328 458.736 581.604 458.248 581.82C457.768 582.036 457.224 582.144 456.616 582.144ZM461.551 582V581.4L464.047 578.652C464.535 578.116 464.931 577.672 465.235 577.32C465.547 576.968 465.779 576.648 465.931 576.36C466.083 576.072 466.159 575.76 466.159 575.424C466.159 574.888 466.003 574.476 465.691 574.188C465.379 573.9 464.963 573.756 464.443 573.756C463.907 573.756 463.455 573.908 463.087 574.212C462.727 574.516 462.483 574.94 462.355 575.484L461.479 575.292C461.583 574.804 461.771 574.384 462.043 574.032C462.315 573.68 462.655 573.408 463.063 573.216C463.471 573.016 463.927 572.916 464.431 572.916C464.967 572.916 465.435 573.024 465.835 573.24C466.235 573.456 466.547 573.752 466.771 574.128C467.003 574.504 467.119 574.936 467.119 575.424C467.119 575.76 467.047 576.084 466.903 576.396C466.767 576.708 466.559 577.044 466.279 577.404C465.999 577.764 465.639 578.184 465.199 578.664L462.931 581.16H467.359V582H461.551ZM471.819 582.144C471.243 582.144 470.727 582.028 470.271 581.796C469.823 581.556 469.467 581.232 469.203 580.824C468.947 580.408 468.819 579.94 468.819 579.42C468.819 578.852 468.979 578.344 469.299 577.896C469.627 577.448 470.067 577.136 470.619 576.96V577.212C470.195 577.028 469.867 576.756 469.635 576.396C469.403 576.028 469.287 575.636 469.287 575.22C469.287 574.78 469.399 574.388 469.623 574.044C469.847 573.7 470.147 573.428 470.523 573.228C470.907 573.02 471.339 572.916 471.819 572.916C472.307 572.916 472.739 573.016 473.115 573.216C473.491 573.408 473.787 573.68 474.003 574.032C474.227 574.376 474.339 574.772 474.339 575.22C474.339 575.668 474.219 576.068 473.979 576.42C473.739 576.764 473.423 577.028 473.031 577.212L473.019 576.96C473.571 577.136 474.007 577.448 474.327 577.896C474.655 578.344 474.819 578.852 474.819 579.42C474.819 579.94 474.687 580.408 474.423 580.824C474.167 581.232 473.811 581.556 473.355 581.796C472.907 582.028 472.395 582.144 471.819 582.144ZM471.819 581.304C472.227 581.304 472.583 581.228 472.887 581.076C473.191 580.916 473.427 580.696 473.595 580.416C473.771 580.128 473.859 579.796 473.859 579.42C473.859 579.044 473.771 578.716 473.595 578.436C473.427 578.148 473.191 577.928 472.887 577.776C472.583 577.616 472.227 577.536 471.819 577.536C471.411 577.536 471.051 577.616 470.739 577.776C470.435 577.928 470.199 578.148 470.031 578.436C469.863 578.716 469.779 579.044 469.779 579.42C469.779 579.796 469.863 580.128 470.031 580.416C470.199 580.696 470.435 580.916 470.739 581.076C471.051 581.228 471.411 581.304 471.819 581.304ZM471.819 576.696C472.115 576.696 472.379 576.636 472.611 576.516C472.843 576.388 473.027 576.216 473.163 576C473.307 575.776 473.379 575.516 473.379 575.22C473.379 574.924 473.307 574.668 473.163 574.452C473.027 574.236 472.843 574.068 472.611 573.948C472.379 573.82 472.115 573.756 471.819 573.756C471.523 573.756 471.255 573.82 471.015 573.948C470.783 574.068 470.595 574.236 470.451 574.452C470.315 574.668 470.247 574.924 470.247 575.22C470.247 575.516 470.315 575.776 470.451 576C470.595 576.216 470.783 576.388 471.015 576.516C471.255 576.636 471.523 576.696 471.819 576.696ZM479.354 582.144C478.778 582.144 478.262 582.028 477.806 581.796C477.358 581.556 477.002 581.232 476.738 580.824C476.482 580.408 476.354 579.94 476.354 579.42C476.354 578.852 476.514 578.344 476.834 577.896C477.162 577.448 477.602 577.136 478.154 576.96V577.212C477.73 577.028 477.402 576.756 477.17 576.396C476.938 576.028 476.822 575.636 476.822 575.22C476.822 574.78 476.934 574.388 477.158 574.044C477.382 573.7 477.682 573.428 478.058 573.228C478.442 573.02 478.874 572.916 479.354 572.916C479.842 572.916 480.274 573.016 480.65 573.216C481.026 573.408 481.322 573.68 481.538 574.032C481.762 574.376 481.874 574.772 481.874 575.22C481.874 575.668 481.754 576.068 481.514 576.42C481.274 576.764 480.958 577.028 480.566 577.212L480.554 576.96C481.106 577.136 481.542 577.448 481.862 577.896C482.19 578.344 482.354 578.852 482.354 579.42C482.354 579.94 482.222 580.408 481.958 580.824C481.702 581.232 481.346 581.556 480.89 581.796C480.442 582.028 479.93 582.144 479.354 582.144ZM479.354 581.304C479.762 581.304 480.118 581.228 480.422 581.076C480.726 580.916 480.962 580.696 481.13 580.416C481.306 580.128 481.394 579.796 481.394 579.42C481.394 579.044 481.306 578.716 481.13 578.436C480.962 578.148 480.726 577.928 480.422 577.776C480.118 577.616 479.762 577.536 479.354 577.536C478.946 577.536 478.586 577.616 478.274 577.776C477.97 577.928 477.734 578.148 477.566 578.436C477.398 578.716 477.314 579.044 477.314 579.42C477.314 579.796 477.398 580.128 477.566 580.416C477.734 580.696 477.97 580.916 478.274 581.076C478.586 581.228 478.946 581.304 479.354 581.304ZM479.354 576.696C479.65 576.696 479.914 576.636 480.146 576.516C480.378 576.388 480.562 576.216 480.698 576C480.842 575.776 480.914 575.516 480.914 575.22C480.914 574.924 480.842 574.668 480.698 574.452C480.562 574.236 480.378 574.068 480.146 573.948C479.914 573.82 479.65 573.756 479.354 573.756C479.058 573.756 478.79 573.82 478.55 573.948C478.318 574.068 478.13 574.236 477.986 574.452C477.85 574.668 477.782 574.924 477.782 575.22C477.782 575.516 477.85 575.776 477.986 576C478.13 576.216 478.318 576.388 478.55 576.516C478.79 576.636 479.058 576.696 479.354 576.696ZM484.177 582V573.06H489.697V573.96H485.137V577.068H489.337V577.968H485.137V582H484.177ZM493.862 582.144C493.286 582.144 492.77 582.028 492.314 581.796C491.866 581.556 491.51 581.232 491.246 580.824C490.99 580.408 490.862 579.94 490.862 579.42C490.862 578.852 491.022 578.344 491.342 577.896C491.67 577.448 492.11 577.136 492.662 576.96V577.212C492.238 577.028 491.91 576.756 491.678 576.396C491.446 576.028 491.33 575.636 491.33 575.22C491.33 574.78 491.442 574.388 491.666 574.044C491.89 573.7 492.19 573.428 492.566 573.228C492.95 573.02 493.382 572.916 493.862 572.916C494.35 572.916 494.782 573.016 495.158 573.216C495.534 573.408 495.83 573.68 496.046 574.032C496.27 574.376 496.382 574.772 496.382 575.22C496.382 575.668 496.262 576.068 496.022 576.42C495.782 576.764 495.466 577.028 495.074 577.212L495.062 576.96C495.614 577.136 496.05 577.448 496.37 577.896C496.698 578.344 496.862 578.852 496.862 579.42C496.862 579.94 496.73 580.408 496.466 580.824C496.21 581.232 495.854 581.556 495.398 581.796C494.95 582.028 494.438 582.144 493.862 582.144ZM493.862 581.304C494.27 581.304 494.626 581.228 494.93 581.076C495.234 580.916 495.47 580.696 495.638 580.416C495.814 580.128 495.902 579.796 495.902 579.42C495.902 579.044 495.814 578.716 495.638 578.436C495.47 578.148 495.234 577.928 494.93 577.776C494.626 577.616 494.27 577.536 493.862 577.536C493.454 577.536 493.094 577.616 492.782 577.776C492.478 577.928 492.242 578.148 492.074 578.436C491.906 578.716 491.822 579.044 491.822 579.42C491.822 579.796 491.906 580.128 492.074 580.416C492.242 580.696 492.478 580.916 492.782 581.076C493.094 581.228 493.454 581.304 493.862 581.304ZM493.862 576.696C494.158 576.696 494.422 576.636 494.654 576.516C494.886 576.388 495.07 576.216 495.206 576C495.35 575.776 495.422 575.516 495.422 575.22C495.422 574.924 495.35 574.668 495.206 574.452C495.07 574.236 494.886 574.068 494.654 573.948C494.422 573.82 494.158 573.756 493.862 573.756C493.566 573.756 493.298 573.82 493.058 573.948C492.826 574.068 492.638 574.236 492.494 574.452C492.358 574.668 492.29 574.924 492.29 575.22C492.29 575.516 492.358 575.776 492.494 576C492.638 576.216 492.826 576.388 493.058 576.516C493.298 576.636 493.566 576.696 493.862 576.696Z" fill="white"/>
<path d="M561.236 582L561.908 579.66H560.468V578.82H562.148L562.892 576.24H561.452V575.4H563.132L563.804 573.06H564.764L564.092 575.4H566.612L567.284 573.06H568.244L567.572 575.4H569.012V576.24H567.332L566.588 578.82H568.028V579.66H566.348L565.676 582H564.716L565.388 579.66H562.868L562.196 582H561.236ZM563.108 578.82H565.628L566.372 576.24H563.852L563.108 578.82ZM570.536 582V573.06H576.056V573.96H571.496V577.068H575.696V577.968H571.496V582H570.536ZM577.509 582V573.06H583.029V573.96H578.469V577.068H582.669V577.968H578.469V582H577.509ZM584.482 582V573.06H590.002V573.96H585.442V577.068H589.642V577.968H585.442V582H584.482ZM594.802 582.144C594.098 582.144 593.478 581.952 592.942 581.568C592.414 581.176 592.002 580.636 591.706 579.948C591.41 579.252 591.262 578.444 591.262 577.524C591.262 576.604 591.41 575.8 591.706 575.112C592.002 574.416 592.414 573.876 592.942 573.492C593.47 573.108 594.086 572.916 594.79 572.916C595.494 572.916 596.11 573.108 596.638 573.492C597.166 573.876 597.578 574.416 597.874 575.112C598.17 575.8 598.318 576.604 598.318 577.524C598.318 578.444 598.17 579.252 597.874 579.948C597.586 580.644 597.178 581.184 596.65 581.568C596.122 581.952 595.506 582.144 594.802 582.144ZM594.802 581.244C595.314 581.244 595.762 581.088 596.146 580.776C596.53 580.464 596.83 580.032 597.046 579.48C597.262 578.92 597.37 578.268 597.37 577.524C597.37 576.78 597.262 576.132 597.046 575.58C596.83 575.02 596.53 574.588 596.146 574.284C595.762 573.972 595.31 573.816 594.79 573.816C594.278 573.816 593.83 573.972 593.446 574.284C593.062 574.588 592.762 575.02 592.546 575.58C592.33 576.132 592.222 576.78 592.222 577.524C592.222 578.26 592.33 578.908 592.546 579.468C592.762 580.028 593.062 580.464 593.446 580.776C593.838 581.088 594.29 581.244 594.802 581.244ZM604.324 582.144C603.692 582.144 603.112 582.032 602.584 581.808C602.056 581.576 601.596 581.256 601.204 580.848C600.82 580.432 600.52 579.944 600.304 579.384C600.088 578.824 599.979 578.208 599.979 577.536C599.979 576.864 600.088 576.248 600.304 575.688C600.52 575.128 600.82 574.64 601.204 574.224C601.596 573.808 602.056 573.488 602.584 573.264C603.112 573.032 603.692 572.916 604.324 572.916C604.932 572.916 605.476 573.024 605.956 573.24C606.444 573.456 606.852 573.736 607.18 574.08C607.516 574.416 607.756 574.772 607.9 575.148L607 575.544C606.776 575.024 606.432 574.608 605.967 574.296C605.512 573.976 604.964 573.816 604.324 573.816C603.668 573.816 603.084 573.972 602.572 574.284C602.06 574.596 601.66 575.032 601.372 575.592C601.084 576.144 600.94 576.792 600.94 577.536C600.94 578.272 601.084 578.92 601.372 579.48C601.66 580.04 602.06 580.476 602.572 580.788C603.084 581.092 603.668 581.244 604.324 581.244C604.964 581.244 605.512 581.088 605.967 580.776C606.432 580.464 606.776 580.048 607 579.528L607.9 579.924C607.756 580.292 607.516 580.648 607.18 580.992C606.852 581.328 606.444 581.604 605.956 581.82C605.476 582.036 604.932 582.144 604.324 582.144ZM609.619 582V573.06H612.559C613.447 573.06 614.219 573.244 614.875 573.612C615.531 573.972 616.039 574.488 616.399 575.16C616.759 575.824 616.939 576.612 616.939 577.524C616.939 578.428 616.759 579.216 616.399 579.888C616.039 580.56 615.531 581.08 614.875 581.448C614.219 581.816 613.447 582 612.559 582H609.619ZM610.579 581.1H612.559C613.247 581.1 613.843 580.956 614.347 580.668C614.851 580.372 615.239 579.956 615.511 579.42C615.791 578.884 615.931 578.252 615.931 577.524C615.931 576.796 615.791 576.168 615.511 575.64C615.231 575.104 614.839 574.692 614.335 574.404C613.831 574.108 613.239 573.96 612.559 573.96H610.579V581.1Z" fill="black"/>
<path d="M683.236 582L683.908 579.66H682.468V578.82H684.148L684.892 576.24H683.452V575.4H685.132L685.804 573.06H686.764L686.092 575.4H688.612L689.284 573.06H690.244L689.572 575.4H691.012V576.24H689.332L688.588 578.82H690.028V579.66H688.348L687.676 582H686.716L687.388 579.66H684.868L684.196 582H683.236ZM685.108 578.82H687.628L688.372 576.24H685.852L685.108 578.82ZM692.536 582V573.06H698.056V573.96H693.496V577.068H697.696V577.968H693.496V582H692.536ZM699.401 582L703.433 573.9H698.969V573.06H704.429V573.9L700.409 582H699.401ZM708.737 582.144C708.161 582.144 707.645 582.028 707.189 581.796C706.741 581.556 706.385 581.232 706.121 580.824C705.865 580.408 705.737 579.94 705.737 579.42C705.737 578.852 705.897 578.344 706.217 577.896C706.545 577.448 706.985 577.136 707.537 576.96V577.212C707.113 577.028 706.785 576.756 706.553 576.396C706.321 576.028 706.205 575.636 706.205 575.22C706.205 574.78 706.317 574.388 706.541 574.044C706.765 573.7 707.065 573.428 707.441 573.228C707.825 573.02 708.257 572.916 708.737 572.916C709.225 572.916 709.657 573.016 710.033 573.216C710.409 573.408 710.705 573.68 710.921 574.032C711.145 574.376 711.257 574.772 711.257 575.22C711.257 575.668 711.137 576.068 710.897 576.42C710.657 576.764 710.341 577.028 709.949 577.212L709.937 576.96C710.489 577.136 710.925 577.448 711.245 577.896C711.573 578.344 711.737 578.852 711.737 579.42C711.737 579.94 711.605 580.408 711.341 580.824C711.085 581.232 710.729 581.556 710.273 581.796C709.825 582.028 709.313 582.144 708.737 582.144ZM708.737 581.304C709.145 581.304 709.501 581.228 709.805 581.076C710.109 580.916 710.345 580.696 710.513 580.416C710.689 580.128 710.777 579.796 710.777 579.42C710.777 579.044 710.689 578.716 710.513 578.436C710.345 578.148 710.109 577.928 709.805 577.776C709.501 577.616 709.145 577.536 708.737 577.536C708.329 577.536 707.969 577.616 707.657 577.776C707.353 577.928 707.117 578.148 706.949 578.436C706.781 578.716 706.697 579.044 706.697 579.42C706.697 579.796 706.781 580.128 706.949 580.416C707.117 580.696 707.353 580.916 707.657 581.076C707.969 581.228 708.329 581.304 708.737 581.304ZM708.737 576.696C709.033 576.696 709.297 576.636 709.529 576.516C709.761 576.388 709.945 576.216 710.081 576C710.225 575.776 710.297 575.516 710.297 575.22C710.297 574.924 710.225 574.668 710.081 574.452C709.945 574.236 709.761 574.068 709.529 573.948C709.297 573.82 709.033 573.756 708.737 573.756C708.441 573.756 708.173 573.82 707.933 573.948C707.701 574.068 707.513 574.236 707.369 574.452C707.233 574.668 707.165 574.924 707.165 575.22C707.165 575.516 707.233 575.776 707.369 576C707.513 576.216 707.701 576.388 707.933 576.516C708.173 576.636 708.441 576.696 708.737 576.696ZM716.272 582.144C715.696 582.144 715.18 582.028 714.724 581.796C714.276 581.556 713.92 581.232 713.656 580.824C713.4 580.408 713.272 579.94 713.272 579.42C713.272 578.852 713.432 578.344 713.752 577.896C714.08 577.448 714.52 577.136 715.072 576.96V577.212C714.648 577.028 714.32 576.756 714.088 576.396C713.856 576.028 713.74 575.636 713.74 575.22C713.74 574.78 713.852 574.388 714.076 574.044C714.3 573.7 714.6 573.428 714.976 573.228C715.36 573.02 715.792 572.916 716.272 572.916C716.76 572.916 717.192 573.016 717.568 573.216C717.944 573.408 718.24 573.68 718.456 574.032C718.68 574.376 718.792 574.772 718.792 575.22C718.792 575.668 718.672 576.068 718.432 576.42C718.192 576.764 717.876 577.028 717.484 577.212L717.472 576.96C718.024 577.136 718.46 577.448 718.78 577.896C719.108 578.344 719.272 578.852 719.272 579.42C719.272 579.94 719.14 580.408 718.876 580.824C718.62 581.232 718.264 581.556 717.808 581.796C717.36 582.028 716.848 582.144 716.272 582.144ZM716.272 581.304C716.68 581.304 717.036 581.228 717.34 581.076C717.644 580.916 717.88 580.696 718.048 580.416C718.224 580.128 718.312 579.796 718.312 579.42C718.312 579.044 718.224 578.716 718.048 578.436C717.88 578.148 717.644 577.928 717.34 577.776C717.036 577.616 716.68 577.536 716.272 577.536C715.864 577.536 715.504 577.616 715.192 577.776C714.888 577.928 714.652 578.148 714.484 578.436C714.316 578.716 714.232 579.044 714.232 579.42C714.232 579.796 714.316 580.128 714.484 580.416C714.652 580.696 714.888 580.916 715.192 581.076C715.504 581.228 715.864 581.304 716.272 581.304ZM716.272 576.696C716.568 576.696 716.832 576.636 717.064 576.516C717.296 576.388 717.48 576.216 717.616 576C717.76 575.776 717.832 575.516 717.832 575.22C717.832 574.924 717.76 574.668 717.616 574.452C717.48 574.236 717.296 574.068 717.064 573.948C716.832 573.82 716.568 573.756 716.272 573.756C715.976 573.756 715.708 573.82 715.468 573.948C715.236 574.068 715.048 574.236 714.904 574.452C714.768 574.668 714.7 574.924 714.7 575.22C714.7 575.516 714.768 575.776 714.904 576C715.048 576.216 715.236 576.388 715.468 576.516C715.708 576.636 715.976 576.696 716.272 576.696ZM721.095 582V573.06H726.615V573.96H722.055V577.068H726.255V577.968H722.055V582H721.095ZM727.96 582L731.992 573.9H727.528V573.06H732.988V573.9L728.968 582H727.96Z" fill="white"/>
<path d="M802.236 582L802.908 579.66H801.468V578.82H803.148L803.892 576.24H802.452V575.4H804.132L804.804 573.06H805.764L805.092 575.4H807.612L808.284 573.06H809.244L808.572 575.4H810.012V576.24H808.332L807.588 578.82H809.028V579.66H807.348L806.676 582H805.716L806.388 579.66H803.868L803.196 582H802.236ZM804.108 578.82H806.628L807.372 576.24H804.852L804.108 578.82ZM814.008 582.144C813.544 582.144 813.116 582.064 812.724 581.904C812.332 581.744 811.988 581.516 811.692 581.22C811.404 580.924 811.184 580.572 811.032 580.164L811.8 579.804C811.984 580.268 812.272 580.636 812.664 580.908C813.056 581.172 813.504 581.304 814.008 581.304C814.408 581.304 814.764 581.228 815.076 581.076C815.388 580.916 815.632 580.688 815.808 580.392C815.984 580.096 816.072 579.736 816.072 579.312C816.072 578.888 815.98 578.528 815.796 578.232C815.62 577.936 815.376 577.712 815.064 577.56C814.752 577.408 814.396 577.332 813.996 577.332C813.892 577.332 813.776 577.336 813.648 577.344C813.528 577.352 813.428 577.364 813.348 577.38L813.156 576.96L815.568 573.9H811.452V573.06H816.648V573.9L814.392 576.744L814.272 576.588C814.808 576.604 815.284 576.732 815.7 576.972C816.116 577.204 816.44 577.52 816.672 577.92C816.912 578.32 817.032 578.784 817.032 579.312C817.032 579.84 816.904 580.32 816.648 580.752C816.392 581.176 816.036 581.516 815.58 581.772C815.124 582.02 814.6 582.144 814.008 582.144ZM818.849 582V573.06H824.609V573.96H819.809V577.068H824.369V577.968H819.809V581.1H824.609V582H818.849ZM828.669 582.144C828.205 582.144 827.777 582.064 827.385 581.904C826.993 581.744 826.649 581.516 826.353 581.22C826.065 580.924 825.845 580.572 825.693 580.164L826.461 579.804C826.645 580.268 826.933 580.636 827.325 580.908C827.717 581.172 828.165 581.304 828.669 581.304C829.069 581.304 829.425 581.228 829.737 581.076C830.049 580.916 830.293 580.688 830.469 580.392C830.645 580.096 830.733 579.736 830.733 579.312C830.733 578.888 830.641 578.528 830.457 578.232C830.281 577.936 830.037 577.712 829.725 577.56C829.413 577.408 829.057 577.332 828.657 577.332C828.553 577.332 828.437 577.336 828.309 577.344C828.189 577.352 828.089 577.364 828.009 577.38L827.817 576.96L830.229 573.9H826.113V573.06H831.309V573.9L829.053 576.744L828.933 576.588C829.469 576.604 829.945 576.732 830.361 576.972C830.777 577.204 831.101 577.52 831.333 577.92C831.573 578.32 831.693 578.784 831.693 579.312C831.693 579.84 831.565 580.32 831.309 580.752C831.053 581.176 830.697 581.516 830.241 581.772C829.785 582.02 829.261 582.144 828.669 582.144ZM834.625 582V573.9H832.945V573.06H835.585V582H834.625ZM840.674 582.144C840.098 582.144 839.582 582.028 839.126 581.796C838.678 581.556 838.322 581.232 838.058 580.824C837.802 580.408 837.674 579.94 837.674 579.42C837.674 578.852 837.834 578.344 838.154 577.896C838.482 577.448 838.922 577.136 839.474 576.96V577.212C839.05 577.028 838.722 576.756 838.49 576.396C838.258 576.028 838.142 575.636 838.142 575.22C838.142 574.78 838.254 574.388 838.478 574.044C838.702 573.7 839.002 573.428 839.378 573.228C839.762 573.02 840.194 572.916 840.674 572.916C841.162 572.916 841.594 573.016 841.97 573.216C842.346 573.408 842.642 573.68 842.858 574.032C843.082 574.376 843.194 574.772 843.194 575.22C843.194 575.668 843.074 576.068 842.834 576.42C842.594 576.764 842.278 577.028 841.886 577.212L841.874 576.96C842.426 577.136 842.862 577.448 843.182 577.896C843.51 578.344 843.674 578.852 843.674 579.42C843.674 579.94 843.542 580.408 843.278 580.824C843.022 581.232 842.666 581.556 842.21 581.796C841.762 582.028 841.25 582.144 840.674 582.144ZM840.674 581.304C841.082 581.304 841.438 581.228 841.742 581.076C842.046 580.916 842.282 580.696 842.45 580.416C842.626 580.128 842.714 579.796 842.714 579.42C842.714 579.044 842.626 578.716 842.45 578.436C842.282 578.148 842.046 577.928 841.742 577.776C841.438 577.616 841.082 577.536 840.674 577.536C840.266 577.536 839.906 577.616 839.594 577.776C839.29 577.928 839.054 578.148 838.886 578.436C838.718 578.716 838.634 579.044 838.634 579.42C838.634 579.796 838.718 580.128 838.886 580.416C839.054 580.696 839.29 580.916 839.594 581.076C839.906 581.228 840.266 581.304 840.674 581.304ZM840.674 576.696C840.97 576.696 841.234 576.636 841.466 576.516C841.698 576.388 841.882 576.216 842.018 576C842.162 575.776 842.234 575.516 842.234 575.22C842.234 574.924 842.162 574.668 842.018 574.452C841.882 574.236 841.698 574.068 841.466 573.948C841.234 573.82 840.97 573.756 840.674 573.756C840.378 573.756 840.11 573.82 839.87 573.948C839.638 574.068 839.45 574.236 839.306 574.452C839.17 574.668 839.102 574.924 839.102 575.22C839.102 575.516 839.17 575.776 839.306 576C839.45 576.216 839.638 576.388 839.87 576.516C840.11 576.636 840.378 576.696 840.674 576.696ZM847.969 582.144C847.505 582.144 847.077 582.064 846.685 581.904C846.293 581.744 845.949 581.516 845.653 581.22C845.365 580.924 845.145 580.572 844.993 580.164L845.761 579.804C845.945 580.268 846.233 580.636 846.625 580.908C847.017 581.172 847.465 581.304 847.969 581.304C848.369 581.304 848.725 581.228 849.037 581.076C849.349 580.916 849.593 580.688 849.769 580.392C849.945 580.096 850.033 579.736 850.033 579.312C850.033 578.888 849.941 578.528 849.757 578.232C849.581 577.936 849.337 577.712 849.025 577.56C848.713 577.408 848.357 577.332 847.957 577.332C847.853 577.332 847.737 577.336 847.609 577.344C847.489 577.352 847.389 577.364 847.309 577.38L847.117 576.96L849.529 573.9H845.413V573.06H850.609V573.9L848.353 576.744L848.233 576.588C848.769 576.604 849.245 576.732 849.661 576.972C850.077 577.204 850.401 577.52 850.633 577.92C850.873 578.32 850.993 578.784 850.993 579.312C850.993 579.84 850.865 580.32 850.609 580.752C850.353 581.176 849.997 581.516 849.541 581.772C849.085 582.02 848.561 582.144 847.969 582.144Z" fill="white"/>
<path d="M921.236 582L921.908 579.66H920.468V578.82H922.148L922.892 576.24H921.452V575.4H923.132L923.804 573.06H924.764L924.092 575.4H926.612L927.284 573.06H928.244L927.572 575.4H929.012V576.24H927.332L926.588 578.82H928.028V579.66H926.348L925.676 582H924.716L925.388 579.66H922.868L922.196 582H921.236ZM923.108 578.82H925.628L926.372 576.24H923.852L923.108 578.82ZM933.104 582.144C932.64 582.144 932.208 582.064 931.808 581.904C931.416 581.744 931.072 581.516 930.776 581.22C930.48 580.924 930.256 580.572 930.104 580.164L930.836 579.804C931.02 580.268 931.32 580.636 931.736 580.908C932.16 581.172 932.616 581.304 933.104 581.304C933.496 581.304 933.844 581.212 934.148 581.028C934.46 580.844 934.704 580.596 934.88 580.284C935.056 579.964 935.144 579.608 935.144 579.216C935.144 578.808 935.052 578.448 934.868 578.136C934.692 577.824 934.452 577.58 934.148 577.404C933.844 577.22 933.5 577.128 933.116 577.128C932.724 577.128 932.36 577.22 932.024 577.404C931.696 577.58 931.456 577.796 931.304 578.052L930.548 577.908L931.22 573.06H935.744V573.9H931.568L931.94 573.576L931.4 577.392L931.028 577.224C931.308 576.88 931.636 576.636 932.012 576.492C932.388 576.34 932.772 576.264 933.164 576.264C933.74 576.264 934.248 576.4 934.688 576.672C935.128 576.936 935.472 577.292 935.72 577.74C935.976 578.18 936.104 578.672 936.104 579.216C936.104 579.768 935.972 580.268 935.708 580.716C935.452 581.156 935.096 581.504 934.64 581.76C934.192 582.016 933.68 582.144 933.104 582.144ZM939.047 582V573.9H937.367V573.06H940.007V582H939.047ZM944.856 582.144C944.392 582.144 943.964 582.064 943.572 581.904C943.18 581.744 942.836 581.516 942.54 581.22C942.252 580.924 942.032 580.572 941.88 580.164L942.648 579.804C942.832 580.268 943.12 580.636 943.512 580.908C943.904 581.172 944.352 581.304 944.856 581.304C945.256 581.304 945.612 581.228 945.924 581.076C946.236 580.916 946.48 580.688 946.656 580.392C946.832 580.096 946.92 579.736 946.92 579.312C946.92 578.888 946.828 578.528 946.644 578.232C946.468 577.936 946.224 577.712 945.912 577.56C945.6 577.408 945.244 577.332 944.844 577.332C944.74 577.332 944.624 577.336 944.496 577.344C944.376 577.352 944.276 577.364 944.196 577.38L944.004 576.96L946.416 573.9H942.3V573.06H947.496V573.9L945.24 576.744L945.12 576.588C945.656 576.604 946.132 576.732 946.548 576.972C946.964 577.204 947.288 577.52 947.52 577.92C947.76 578.32 947.88 578.784 947.88 579.312C947.88 579.84 947.752 580.32 947.496 580.752C947.24 581.176 946.884 581.516 946.428 581.772C945.972 582.02 945.448 582.144 944.856 582.144ZM949.697 582V573.06H955.217V573.96H950.657V577.068H954.857V577.968H950.657V582H949.697ZM956.669 582V573.06H962.429V573.96H957.629V577.068H962.189V577.968H957.629V581.1H962.429V582H956.669ZM964.017 582V573.06H969.537V573.96H964.977V577.068H969.177V577.968H964.977V582H964.017Z" fill="white"/>
<path d="M85.236 274L85.908 271.66H84.468V270.82H86.148L86.892 268.24H85.452V267.4H87.132L87.804 265.06H88.764L88.092 267.4H90.612L91.284 265.06H92.244L91.572 267.4H93.012V268.24H91.332L90.588 270.82H92.028V271.66H90.348L89.676 274H88.716L89.388 271.66H86.868L86.196 274H85.236ZM87.108 270.82H89.628L90.372 268.24H87.852L87.108 270.82ZM94.5365 274V265.06H97.4765C98.3645 265.06 99.1365 265.244 99.7925 265.612C100.448 265.972 100.956 266.488 101.316 267.16C101.676 267.824 101.856 268.612 101.856 269.524C101.856 270.428 101.676 271.216 101.316 271.888C100.956 272.56 100.448 273.08 99.7925 273.448C99.1365 273.816 98.3645 274 97.4765 274H94.5365ZM95.4965 273.1H97.4765C98.1645 273.1 98.7605 272.956 99.2645 272.668C99.7685 272.372 100.156 271.956 100.428 271.42C100.708 270.884 100.848 270.252 100.848 269.524C100.848 268.796 100.708 268.168 100.428 267.64C100.148 267.104 99.7565 266.692 99.2525 266.404C98.7485 266.108 98.1565 265.96 97.4765 265.96H95.4965V273.1ZM103.443 274V265.06H106.383C107.271 265.06 108.043 265.244 108.699 265.612C109.355 265.972 109.863 266.488 110.223 267.16C110.583 267.824 110.763 268.612 110.763 269.524C110.763 270.428 110.583 271.216 110.223 271.888C109.863 272.56 109.355 273.08 108.699 273.448C108.043 273.816 107.271 274 106.383 274H103.443ZM104.403 273.1H106.383C107.071 273.1 107.667 272.956 108.171 272.668C108.675 272.372 109.063 271.956 109.335 271.42C109.615 270.884 109.755 270.252 109.755 269.524C109.755 268.796 109.615 268.168 109.335 267.64C109.055 267.104 108.663 266.692 108.159 266.404C107.655 266.108 107.063 265.96 106.383 265.96H104.403V273.1ZM112.349 274V265.06H115.289C116.177 265.06 116.949 265.244 117.605 265.612C118.261 265.972 118.769 266.488 119.129 267.16C119.489 267.824 119.669 268.612 119.669 269.524C119.669 270.428 119.489 271.216 119.129 271.888C118.769 272.56 118.261 273.08 117.605 273.448C116.949 273.816 116.177 274 115.289 274H112.349ZM113.309 273.1H115.289C115.977 273.1 116.573 272.956 117.077 272.668C117.581 272.372 117.969 271.956 118.241 271.42C118.521 270.884 118.661 270.252 118.661 269.524C118.661 268.796 118.521 268.168 118.241 267.64C117.961 267.104 117.569 266.692 117.065 266.404C116.561 266.108 115.969 265.96 115.289 265.96H113.309V273.1ZM121.255 274V265.06H125.011C125.515 265.06 125.951 265.156 126.319 265.348C126.695 265.532 126.983 265.792 127.183 266.128C127.391 266.464 127.495 266.856 127.495 267.304C127.495 267.768 127.379 268.18 127.147 268.54C126.923 268.892 126.599 269.16 126.175 269.344L126.163 269.056C126.515 269.184 126.815 269.364 127.063 269.596C127.319 269.828 127.515 270.1 127.651 270.412C127.787 270.716 127.855 271.044 127.855 271.396C127.855 272.196 127.599 272.832 127.087 273.304C126.583 273.768 125.895 274 125.023 274H121.255ZM122.215 273.1H125.023C125.591 273.1 126.043 272.952 126.379 272.656C126.723 272.352 126.895 271.936 126.895 271.408C126.895 270.888 126.723 270.476 126.379 270.172C126.043 269.86 125.591 269.704 125.023 269.704H122.215V273.1ZM122.215 268.84H124.939C125.419 268.84 125.803 268.7 126.091 268.42C126.387 268.14 126.535 267.78 126.535 267.34C126.535 266.892 126.387 266.552 126.091 266.32C125.803 266.08 125.419 265.96 124.939 265.96H122.215V268.84ZM129.576 274V265.06H135.096V265.96H130.536V269.068H134.736V269.968H130.536V274H129.576ZM140.592 274V271.888H136.044V271.108L140.592 265.06H141.432V271.108H142.524V271.888H141.432V274H140.592ZM136.776 271.456L136.668 271.108H140.592V265.888L140.892 265.972L136.776 271.456Z" fill="black"/>
<path d="M205.236 274L205.908 271.66H204.468V270.82H206.148L206.892 268.24H205.452V267.4H207.132L207.804 265.06H208.764L208.092 267.4H210.612L211.284 265.06H212.244L211.572 267.4H213.012V268.24H211.332L210.588 270.82H212.028V271.66H210.348L209.676 274H208.716L209.388 271.66H206.868L206.196 274H205.236ZM207.108 270.82H209.628L210.372 268.24H207.852L207.108 270.82ZM218.616 274.144C217.984 274.144 217.404 274.032 216.876 273.808C216.348 273.576 215.888 273.256 215.496 272.848C215.112 272.432 214.812 271.944 214.596 271.384C214.38 270.824 214.272 270.208 214.272 269.536C214.272 268.864 214.38 268.248 214.596 267.688C214.812 267.128 215.112 266.64 215.496 266.224C215.888 265.808 216.348 265.488 216.876 265.264C217.404 265.032 217.984 264.916 218.616 264.916C219.224 264.916 219.768 265.024 220.248 265.24C220.736 265.456 221.144 265.736 221.472 266.08C221.808 266.416 222.048 266.772 222.192 267.148L221.292 267.544C221.068 267.024 220.724 266.608 220.26 266.296C219.804 265.976 219.256 265.816 218.616 265.816C217.96 265.816 217.376 265.972 216.864 266.284C216.352 266.596 215.952 267.032 215.664 267.592C215.376 268.144 215.232 268.792 215.232 269.536C215.232 270.272 215.376 270.92 215.664 271.48C215.952 272.04 216.352 272.476 216.864 272.788C217.376 273.092 217.96 273.244 218.616 273.244C219.256 273.244 219.804 273.088 220.26 272.776C220.724 272.464 221.068 272.048 221.292 271.528L222.192 271.924C222.048 272.292 221.808 272.648 221.472 272.992C221.144 273.328 220.736 273.604 220.248 273.82C219.768 274.036 219.224 274.144 218.616 274.144ZM223.551 274V273.4L226.047 270.652C226.535 270.116 226.931 269.672 227.235 269.32C227.547 268.968 227.779 268.648 227.931 268.36C228.083 268.072 228.159 267.76 228.159 267.424C228.159 266.888 228.003 266.476 227.691 266.188C227.379 265.9 226.963 265.756 226.443 265.756C225.907 265.756 225.455 265.908 225.087 266.212C224.727 266.516 224.483 266.94 224.355 267.484L223.479 267.292C223.583 266.804 223.771 266.384 224.043 266.032C224.315 265.68 224.655 265.408 225.063 265.216C225.471 265.016 225.927 264.916 226.431 264.916C226.967 264.916 227.435 265.024 227.835 265.24C228.235 265.456 228.547 265.752 228.771 266.128C229.003 266.504 229.119 266.936 229.119 267.424C229.119 267.76 229.047 268.084 228.903 268.396C228.767 268.708 228.559 269.044 228.279 269.404C227.999 269.764 227.639 270.184 227.199 270.664L224.931 273.16H229.359V274H223.551ZM233.819 274.144C233.243 274.144 232.727 274.028 232.271 273.796C231.823 273.556 231.467 273.232 231.203 272.824C230.947 272.408 230.819 271.94 230.819 271.42C230.819 270.852 230.979 270.344 231.299 269.896C231.627 269.448 232.067 269.136 232.619 268.96V269.212C232.195 269.028 231.867 268.756 231.635 268.396C231.403 268.028 231.287 267.636 231.287 267.22C231.287 266.78 231.399 266.388 231.623 266.044C231.847 265.7 232.147 265.428 232.523 265.228C232.907 265.02 233.339 264.916 233.819 264.916C234.307 264.916 234.739 265.016 235.115 265.216C235.491 265.408 235.787 265.68 236.003 266.032C236.227 266.376 236.339 266.772 236.339 267.22C236.339 267.668 236.219 268.068 235.979 268.42C235.739 268.764 235.423 269.028 235.031 269.212L235.019 268.96C235.571 269.136 236.007 269.448 236.327 269.896C236.655 270.344 236.819 270.852 236.819 271.42C236.819 271.94 236.687 272.408 236.423 272.824C236.167 273.232 235.811 273.556 235.355 273.796C234.907 274.028 234.395 274.144 233.819 274.144ZM233.819 273.304C234.227 273.304 234.583 273.228 234.887 273.076C235.191 272.916 235.427 272.696 235.595 272.416C235.771 272.128 235.859 271.796 235.859 271.42C235.859 271.044 235.771 270.716 235.595 270.436C235.427 270.148 235.191 269.928 234.887 269.776C234.583 269.616 234.227 269.536 233.819 269.536C233.411 269.536 233.051 269.616 232.739 269.776C232.435 269.928 232.199 270.148 232.031 270.436C231.863 270.716 231.779 271.044 231.779 271.42C231.779 271.796 231.863 272.128 232.031 272.416C232.199 272.696 232.435 272.916 232.739 273.076C233.051 273.228 233.411 273.304 233.819 273.304ZM233.819 268.696C234.115 268.696 234.379 268.636 234.611 268.516C234.843 268.388 235.027 268.216 235.163 268C235.307 267.776 235.379 267.516 235.379 267.22C235.379 266.924 235.307 266.668 235.163 266.452C235.027 266.236 234.843 266.068 234.611 265.948C234.379 265.82 234.115 265.756 233.819 265.756C233.523 265.756 233.255 265.82 233.015 265.948C232.783 266.068 232.595 266.236 232.451 266.452C232.315 266.668 232.247 266.924 232.247 267.22C232.247 267.516 232.315 267.776 232.451 268C232.595 268.216 232.783 268.388 233.015 268.516C233.255 268.636 233.523 268.696 233.819 268.696ZM241.354 274.144C240.778 274.144 240.262 274.028 239.806 273.796C239.358 273.556 239.002 273.232 238.738 272.824C238.482 272.408 238.354 271.94 238.354 271.42C238.354 270.852 238.514 270.344 238.834 269.896C239.162 269.448 239.602 269.136 240.154 268.96V269.212C239.73 269.028 239.402 268.756 239.17 268.396C238.938 268.028 238.822 267.636 238.822 267.22C238.822 266.78 238.934 266.388 239.158 266.044C239.382 265.7 239.682 265.428 240.058 265.228C240.442 265.02 240.874 264.916 241.354 264.916C241.842 264.916 242.274 265.016 242.65 265.216C243.026 265.408 243.322 265.68 243.538 266.032C243.762 266.376 243.874 266.772 243.874 267.22C243.874 267.668 243.754 268.068 243.514 268.42C243.274 268.764 242.958 269.028 242.566 269.212L242.554 268.96C243.106 269.136 243.542 269.448 243.862 269.896C244.19 270.344 244.354 270.852 244.354 271.42C244.354 271.94 244.222 272.408 243.958 272.824C243.702 273.232 243.346 273.556 242.89 273.796C242.442 274.028 241.93 274.144 241.354 274.144ZM241.354 273.304C241.762 273.304 242.118 273.228 242.422 273.076C242.726 272.916 242.962 272.696 243.13 272.416C243.306 272.128 243.394 271.796 243.394 271.42C243.394 271.044 243.306 270.716 243.13 270.436C242.962 270.148 242.726 269.928 242.422 269.776C242.118 269.616 241.762 269.536 241.354 269.536C240.946 269.536 240.586 269.616 240.274 269.776C239.97 269.928 239.734 270.148 239.566 270.436C239.398 270.716 239.314 271.044 239.314 271.42C239.314 271.796 239.398 272.128 239.566 272.416C239.734 272.696 239.97 272.916 240.274 273.076C240.586 273.228 240.946 273.304 241.354 273.304ZM241.354 268.696C241.65 268.696 241.914 268.636 242.146 268.516C242.378 268.388 242.562 268.216 242.698 268C242.842 267.776 242.914 267.516 242.914 267.22C242.914 266.924 242.842 266.668 242.698 266.452C242.562 266.236 242.378 266.068 242.146 265.948C241.914 265.82 241.65 265.756 241.354 265.756C241.058 265.756 240.79 265.82 240.55 265.948C240.318 266.068 240.13 266.236 239.986 266.452C239.85 266.668 239.782 266.924 239.782 267.22C239.782 267.516 239.85 267.776 239.986 268C240.13 268.216 240.318 268.388 240.55 268.516C240.79 268.636 241.058 268.696 241.354 268.696ZM246.177 274V265.06H251.697V265.96H247.137V269.068H251.337V269.968H247.137V274H246.177ZM255.862 274.144C255.286 274.144 254.77 274.028 254.314 273.796C253.866 273.556 253.51 273.232 253.246 272.824C252.99 272.408 252.862 271.94 252.862 271.42C252.862 270.852 253.022 270.344 253.342 269.896C253.67 269.448 254.11 269.136 254.662 268.96V269.212C254.238 269.028 253.91 268.756 253.678 268.396C253.446 268.028 253.33 267.636 253.33 267.22C253.33 266.78 253.442 266.388 253.666 266.044C253.89 265.7 254.19 265.428 254.566 265.228C254.95 265.02 255.382 264.916 255.862 264.916C256.35 264.916 256.782 265.016 257.158 265.216C257.534 265.408 257.83 265.68 258.046 266.032C258.27 266.376 258.382 266.772 258.382 267.22C258.382 267.668 258.262 268.068 258.022 268.42C257.782 268.764 257.466 269.028 257.074 269.212L257.062 268.96C257.614 269.136 258.05 269.448 258.37 269.896C258.698 270.344 258.862 270.852 258.862 271.42C258.862 271.94 258.73 272.408 258.466 272.824C258.21 273.232 257.854 273.556 257.398 273.796C256.95 274.028 256.438 274.144 255.862 274.144ZM255.862 273.304C256.27 273.304 256.626 273.228 256.93 273.076C257.234 272.916 257.47 272.696 257.638 272.416C257.814 272.128 257.902 271.796 257.902 271.42C257.902 271.044 257.814 270.716 257.638 270.436C257.47 270.148 257.234 269.928 256.93 269.776C256.626 269.616 256.27 269.536 255.862 269.536C255.454 269.536 255.094 269.616 254.782 269.776C254.478 269.928 254.242 270.148 254.074 270.436C253.906 270.716 253.822 271.044 253.822 271.42C253.822 271.796 253.906 272.128 254.074 272.416C254.242 272.696 254.478 272.916 254.782 273.076C255.094 273.228 255.454 273.304 255.862 273.304ZM255.862 268.696C256.158 268.696 256.422 268.636 256.654 268.516C256.886 268.388 257.07 268.216 257.206 268C257.35 267.776 257.422 267.516 257.422 267.22C257.422 266.924 257.35 266.668 257.206 266.452C257.07 266.236 256.886 266.068 256.654 265.948C256.422 265.82 256.158 265.756 255.862 265.756C255.566 265.756 255.298 265.82 255.058 265.948C254.826 266.068 254.638 266.236 254.494 266.452C254.358 266.668 254.29 266.924 254.29 267.22C254.29 267.516 254.358 267.776 254.494 268C254.638 268.216 254.826 268.388 255.058 268.516C255.298 268.636 255.566 268.696 255.862 268.696Z" fill="white"/>
<path d="M323.236 274L323.908 271.66H322.468V270.82H324.148L324.892 268.24H323.452V267.4H325.132L325.804 265.06H326.764L326.092 267.4H328.612L329.284 265.06H330.244L329.572 267.4H331.012V268.24H329.332L328.588 270.82H330.028V271.66H328.348L327.676 274H326.716L327.388 271.66H324.868L324.196 274H323.236ZM325.108 270.82H327.628L328.372 268.24H325.852L325.108 270.82ZM332.536 274V265.06H338.056V265.96H333.496V269.068H337.696V269.968H333.496V274H332.536ZM339.509 274V265.06H345.029V265.96H340.469V269.068H344.669V269.968H340.469V274H339.509ZM346.482 274V265.06H352.002V265.96H347.442V269.068H351.642V269.968H347.442V274H346.482ZM356.802 274.144C356.098 274.144 355.478 273.952 354.942 273.568C354.414 273.176 354.002 272.636 353.706 271.948C353.41 271.252 353.262 270.444 353.262 269.524C353.262 268.604 353.41 267.8 353.706 267.112C354.002 266.416 354.414 265.876 354.942 265.492C355.47 265.108 356.086 264.916 356.79 264.916C357.494 264.916 358.11 265.108 358.638 265.492C359.166 265.876 359.578 266.416 359.874 267.112C360.17 267.8 360.318 268.604 360.318 269.524C360.318 270.444 360.17 271.252 359.874 271.948C359.586 272.644 359.178 273.184 358.65 273.568C358.122 273.952 357.506 274.144 356.802 274.144ZM356.802 273.244C357.314 273.244 357.762 273.088 358.146 272.776C358.53 272.464 358.83 272.032 359.046 271.48C359.262 270.92 359.37 270.268 359.37 269.524C359.37 268.78 359.262 268.132 359.046 267.58C358.83 267.02 358.53 266.588 358.146 266.284C357.762 265.972 357.31 265.816 356.79 265.816C356.278 265.816 355.83 265.972 355.446 266.284C355.062 266.588 354.762 267.02 354.546 267.58C354.33 268.132 354.222 268.78 354.222 269.524C354.222 270.26 354.33 270.908 354.546 271.468C354.762 272.028 355.062 272.464 355.446 272.776C355.838 273.088 356.29 273.244 356.802 273.244ZM366.324 274.144C365.692 274.144 365.112 274.032 364.584 273.808C364.056 273.576 363.596 273.256 363.204 272.848C362.82 272.432 362.52 271.944 362.304 271.384C362.088 270.824 361.979 270.208 361.979 269.536C361.979 268.864 362.088 268.248 362.304 267.688C362.52 267.128 362.82 266.64 363.204 266.224C363.596 265.808 364.056 265.488 364.584 265.264C365.112 265.032 365.692 264.916 366.324 264.916C366.932 264.916 367.476 265.024 367.956 265.24C368.444 265.456 368.852 265.736 369.18 266.08C369.516 266.416 369.756 266.772 369.9 267.148L369 267.544C368.776 267.024 368.432 266.608 367.967 266.296C367.512 265.976 366.964 265.816 366.324 265.816C365.668 265.816 365.084 265.972 364.572 266.284C364.06 266.596 363.66 267.032 363.372 267.592C363.084 268.144 362.94 268.792 362.94 269.536C362.94 270.272 363.084 270.92 363.372 271.48C363.66 272.04 364.06 272.476 364.572 272.788C365.084 273.092 365.668 273.244 366.324 273.244C366.964 273.244 367.512 273.088 367.967 272.776C368.432 272.464 368.776 272.048 369 271.528L369.9 271.924C369.756 272.292 369.516 272.648 369.18 272.992C368.852 273.328 368.444 273.604 367.956 273.82C367.476 274.036 366.932 274.144 366.324 274.144ZM371.619 274V265.06H374.559C375.447 265.06 376.219 265.244 376.875 265.612C377.531 265.972 378.039 266.488 378.399 267.16C378.759 267.824 378.939 268.612 378.939 269.524C378.939 270.428 378.759 271.216 378.399 271.888C378.039 272.56 377.531 273.08 376.875 273.448C376.219 273.816 375.447 274 374.559 274H371.619ZM372.579 273.1H374.559C375.247 273.1 375.843 272.956 376.347 272.668C376.851 272.372 377.239 271.956 377.511 271.42C377.791 270.884 377.931 270.252 377.931 269.524C377.931 268.796 377.791 268.168 377.511 267.64C377.231 267.104 376.839 266.692 376.335 266.404C375.831 266.108 375.239 265.96 374.559 265.96H372.579V273.1Z" fill="black"/>
<path d="M446.236 274L446.908 271.66H445.468V270.82H447.148L447.892 268.24H446.452V267.4H448.132L448.804 265.06H449.764L449.092 267.4H451.612L452.284 265.06H453.244L452.572 267.4H454.012V268.24H452.332L451.588 270.82H453.028V271.66H451.348L450.676 274H449.716L450.388 271.66H447.868L447.196 274H446.236ZM448.108 270.82H450.628L451.372 268.24H448.852L448.108 270.82ZM458.008 274.144C457.544 274.144 457.116 274.064 456.724 273.904C456.332 273.744 455.988 273.516 455.692 273.22C455.404 272.924 455.184 272.572 455.032 272.164L455.8 271.804C455.984 272.268 456.272 272.636 456.664 272.908C457.056 273.172 457.504 273.304 458.008 273.304C458.408 273.304 458.764 273.228 459.076 273.076C459.388 272.916 459.632 272.688 459.808 272.392C459.984 272.096 460.072 271.736 460.072 271.312C460.072 270.888 459.98 270.528 459.796 270.232C459.62 269.936 459.376 269.712 459.064 269.56C458.752 269.408 458.396 269.332 457.996 269.332C457.892 269.332 457.776 269.336 457.648 269.344C457.528 269.352 457.428 269.364 457.348 269.38L457.156 268.96L459.568 265.9H455.452V265.06H460.648V265.9L458.392 268.744L458.272 268.588C458.808 268.604 459.284 268.732 459.7 268.972C460.116 269.204 460.44 269.52 460.672 269.92C460.912 270.32 461.032 270.784 461.032 271.312C461.032 271.84 460.904 272.32 460.648 272.752C460.392 273.176 460.036 273.516 459.58 273.772C459.124 274.02 458.6 274.144 458.008 274.144ZM462.849 274V265.06H468.609V265.96H463.809V269.068H468.369V269.968H463.809V273.1H468.609V274H462.849ZM472.669 274.144C472.205 274.144 471.777 274.064 471.385 273.904C470.993 273.744 470.649 273.516 470.353 273.22C470.065 272.924 469.845 272.572 469.693 272.164L470.461 271.804C470.645 272.268 470.933 272.636 471.325 272.908C471.717 273.172 472.165 273.304 472.669 273.304C473.069 273.304 473.425 273.228 473.737 273.076C474.049 272.916 474.293 272.688 474.469 272.392C474.645 272.096 474.733 271.736 474.733 271.312C474.733 270.888 474.641 270.528 474.457 270.232C474.281 269.936 474.037 269.712 473.725 269.56C473.413 269.408 473.057 269.332 472.657 269.332C472.553 269.332 472.437 269.336 472.309 269.344C472.189 269.352 472.089 269.364 472.009 269.38L471.817 268.96L474.229 265.9H470.113V265.06H475.309V265.9L473.053 268.744L472.933 268.588C473.469 268.604 473.945 268.732 474.361 268.972C474.777 269.204 475.101 269.52 475.333 269.92C475.573 270.32 475.693 270.784 475.693 271.312C475.693 271.84 475.565 272.32 475.309 272.752C475.053 273.176 474.697 273.516 474.241 273.772C473.785 274.02 473.261 274.144 472.669 274.144ZM478.625 274V265.9H476.945V265.06H479.585V274H478.625ZM484.674 274.144C484.098 274.144 483.582 274.028 483.126 273.796C482.678 273.556 482.322 273.232 482.058 272.824C481.802 272.408 481.674 271.94 481.674 271.42C481.674 270.852 481.834 270.344 482.154 269.896C482.482 269.448 482.922 269.136 483.474 268.96V269.212C483.05 269.028 482.722 268.756 482.49 268.396C482.258 268.028 482.142 267.636 482.142 267.22C482.142 266.78 482.254 266.388 482.478 266.044C482.702 265.7 483.002 265.428 483.378 265.228C483.762 265.02 484.194 264.916 484.674 264.916C485.162 264.916 485.594 265.016 485.97 265.216C486.346 265.408 486.642 265.68 486.858 266.032C487.082 266.376 487.194 266.772 487.194 267.22C487.194 267.668 487.074 268.068 486.834 268.42C486.594 268.764 486.278 269.028 485.886 269.212L485.874 268.96C486.426 269.136 486.862 269.448 487.182 269.896C487.51 270.344 487.674 270.852 487.674 271.42C487.674 271.94 487.542 272.408 487.278 272.824C487.022 273.232 486.666 273.556 486.21 273.796C485.762 274.028 485.25 274.144 484.674 274.144ZM484.674 273.304C485.082 273.304 485.438 273.228 485.742 273.076C486.046 272.916 486.282 272.696 486.45 272.416C486.626 272.128 486.714 271.796 486.714 271.42C486.714 271.044 486.626 270.716 486.45 270.436C486.282 270.148 486.046 269.928 485.742 269.776C485.438 269.616 485.082 269.536 484.674 269.536C484.266 269.536 483.906 269.616 483.594 269.776C483.29 269.928 483.054 270.148 482.886 270.436C482.718 270.716 482.634 271.044 482.634 271.42C482.634 271.796 482.718 272.128 482.886 272.416C483.054 272.696 483.29 272.916 483.594 273.076C483.906 273.228 484.266 273.304 484.674 273.304ZM484.674 268.696C484.97 268.696 485.234 268.636 485.466 268.516C485.698 268.388 485.882 268.216 486.018 268C486.162 267.776 486.234 267.516 486.234 267.22C486.234 266.924 486.162 266.668 486.018 266.452C485.882 266.236 485.698 266.068 485.466 265.948C485.234 265.82 484.97 265.756 484.674 265.756C484.378 265.756 484.11 265.82 483.87 265.948C483.638 266.068 483.45 266.236 483.306 266.452C483.17 266.668 483.102 266.924 483.102 267.22C483.102 267.516 483.17 267.776 483.306 268C483.45 268.216 483.638 268.388 483.87 268.516C484.11 268.636 484.378 268.696 484.674 268.696ZM491.969 274.144C491.505 274.144 491.077 274.064 490.685 273.904C490.293 273.744 489.949 273.516 489.653 273.22C489.365 272.924 489.145 272.572 488.993 272.164L489.761 271.804C489.945 272.268 490.233 272.636 490.625 272.908C491.017 273.172 491.465 273.304 491.969 273.304C492.369 273.304 492.725 273.228 493.037 273.076C493.349 272.916 493.593 272.688 493.769 272.392C493.945 272.096 494.033 271.736 494.033 271.312C494.033 270.888 493.941 270.528 493.757 270.232C493.581 269.936 493.337 269.712 493.025 269.56C492.713 269.408 492.357 269.332 491.957 269.332C491.853 269.332 491.737 269.336 491.609 269.344C491.489 269.352 491.389 269.364 491.309 269.38L491.117 268.96L493.529 265.9H489.413V265.06H494.609V265.9L492.353 268.744L492.233 268.588C492.769 268.604 493.245 268.732 493.661 268.972C494.077 269.204 494.401 269.52 494.633 269.92C494.873 270.32 494.993 270.784 494.993 271.312C494.993 271.84 494.865 272.32 494.609 272.752C494.353 273.176 493.997 273.516 493.541 273.772C493.085 274.02 492.561 274.144 491.969 274.144Z" fill="white"/>
<path d="M565.236 274L565.908 271.66H564.468V270.82H566.148L566.892 268.24H565.452V267.4H567.132L567.804 265.06H568.764L568.092 267.4H570.612L571.284 265.06H572.244L571.572 267.4H573.012V268.24H571.332L570.588 270.82H572.028V271.66H570.348L569.676 274H568.716L569.388 271.66H566.868L566.196 274H565.236ZM567.108 270.82H569.628L570.372 268.24H567.852L567.108 270.82ZM577.104 274.144C576.64 274.144 576.208 274.064 575.808 273.904C575.416 273.744 575.072 273.516 574.776 273.22C574.48 272.924 574.256 272.572 574.104 272.164L574.836 271.804C575.02 272.268 575.32 272.636 575.736 272.908C576.16 273.172 576.616 273.304 577.104 273.304C577.496 273.304 577.844 273.212 578.148 273.028C578.46 272.844 578.704 272.596 578.88 272.284C579.056 271.964 579.144 271.608 579.144 271.216C579.144 270.808 579.052 270.448 578.868 270.136C578.692 269.824 578.452 269.58 578.148 269.404C577.844 269.22 577.5 269.128 577.116 269.128C576.724 269.128 576.36 269.22 576.024 269.404C575.696 269.58 575.456 269.796 575.304 270.052L574.548 269.908L575.22 265.06H579.744V265.9H575.568L575.94 265.576L575.4 269.392L575.028 269.224C575.308 268.88 575.636 268.636 576.012 268.492C576.388 268.34 576.772 268.264 577.164 268.264C577.74 268.264 578.248 268.4 578.688 268.672C579.128 268.936 579.472 269.292 579.72 269.74C579.976 270.18 580.104 270.672 580.104 271.216C580.104 271.768 579.972 272.268 579.708 272.716C579.452 273.156 579.096 273.504 578.64 273.76C578.192 274.016 577.68 274.144 577.104 274.144ZM583.047 274V265.9H581.367V265.06H584.007V274H583.047ZM588.856 274.144C588.392 274.144 587.964 274.064 587.572 273.904C587.18 273.744 586.836 273.516 586.54 273.22C586.252 272.924 586.032 272.572 585.88 272.164L586.648 271.804C586.832 272.268 587.12 272.636 587.512 272.908C587.904 273.172 588.352 273.304 588.856 273.304C589.256 273.304 589.612 273.228 589.924 273.076C590.236 272.916 590.48 272.688 590.656 272.392C590.832 272.096 590.92 271.736 590.92 271.312C590.92 270.888 590.828 270.528 590.644 270.232C590.468 269.936 590.224 269.712 589.912 269.56C589.6 269.408 589.244 269.332 588.844 269.332C588.74 269.332 588.624 269.336 588.496 269.344C588.376 269.352 588.276 269.364 588.196 269.38L588.004 268.96L590.416 265.9H586.3V265.06H591.496V265.9L589.24 268.744L589.12 268.588C589.656 268.604 590.132 268.732 590.548 268.972C590.964 269.204 591.288 269.52 591.52 269.92C591.76 270.32 591.88 270.784 591.88 271.312C591.88 271.84 591.752 272.32 591.496 272.752C591.24 273.176 590.884 273.516 590.428 273.772C589.972 274.02 589.448 274.144 588.856 274.144ZM593.697 274V265.06H599.217V265.96H594.657V269.068H598.857V269.968H594.657V274H593.697ZM600.669 274V265.06H606.429V265.96H601.629V269.068H606.189V269.968H601.629V273.1H606.429V274H600.669ZM608.017 274V265.06H613.537V265.96H608.977V269.068H613.177V269.968H608.977V274H608.017Z" fill="black"/>
<path d="M683.236 274L683.908 271.66H682.468V270.82H684.148L684.892 268.24H683.452V267.4H685.132L685.804 265.06H686.764L686.092 267.4H688.612L689.284 265.06H690.244L689.572 267.4H691.012V268.24H689.332L688.588 270.82H690.028V271.66H688.348L687.676 274H686.716L687.388 271.66H684.868L684.196 274H683.236ZM685.108 270.82H687.628L688.372 268.24H685.852L685.108 270.82ZM695.008 274.144C694.544 274.144 694.116 274.064 693.724 273.904C693.332 273.744 692.988 273.516 692.692 273.22C692.404 272.924 692.184 272.572 692.032 272.164L692.8 271.804C692.984 272.268 693.272 272.636 693.664 272.908C694.056 273.172 694.504 273.304 695.008 273.304C695.408 273.304 695.764 273.228 696.076 273.076C696.388 272.916 696.632 272.688 696.808 272.392C696.984 272.096 697.072 271.736 697.072 271.312C697.072 270.888 696.98 270.528 696.796 270.232C696.62 269.936 696.376 269.712 696.064 269.56C695.752 269.408 695.396 269.332 694.996 269.332C694.892 269.332 694.776 269.336 694.648 269.344C694.528 269.352 694.428 269.364 694.348 269.38L694.156 268.96L696.568 265.9H692.452V265.06H697.648V265.9L695.392 268.744L695.272 268.588C695.808 268.604 696.284 268.732 696.7 268.972C697.116 269.204 697.44 269.52 697.672 269.92C697.912 270.32 698.032 270.784 698.032 271.312C698.032 271.84 697.904 272.32 697.648 272.752C697.392 273.176 697.036 273.516 696.58 273.772C696.124 274.02 695.6 274.144 695.008 274.144ZM699.849 274V265.06H705.609V265.96H700.809V269.068H705.369V269.968H700.809V273.1H705.609V274H699.849ZM709.669 274.144C709.205 274.144 708.777 274.064 708.385 273.904C707.993 273.744 707.649 273.516 707.353 273.22C707.065 272.924 706.845 272.572 706.693 272.164L707.461 271.804C707.645 272.268 707.933 272.636 708.325 272.908C708.717 273.172 709.165 273.304 709.669 273.304C710.069 273.304 710.425 273.228 710.737 273.076C711.049 272.916 711.293 272.688 711.469 272.392C711.645 272.096 711.733 271.736 711.733 271.312C711.733 270.888 711.641 270.528 711.457 270.232C711.281 269.936 711.037 269.712 710.725 269.56C710.413 269.408 710.057 269.332 709.657 269.332C709.553 269.332 709.437 269.336 709.309 269.344C709.189 269.352 709.089 269.364 709.009 269.38L708.817 268.96L711.229 265.9H707.113V265.06H712.309V265.9L710.053 268.744L709.933 268.588C710.469 268.604 710.945 268.732 711.361 268.972C711.777 269.204 712.101 269.52 712.333 269.92C712.573 270.32 712.693 270.784 712.693 271.312C712.693 271.84 712.565 272.32 712.309 272.752C712.053 273.176 711.697 273.516 711.241 273.772C710.785 274.02 710.261 274.144 709.669 274.144ZM715.625 274V265.9H713.945V265.06H716.585V274H715.625ZM721.674 274.144C721.098 274.144 720.582 274.028 720.126 273.796C719.678 273.556 719.322 273.232 719.058 272.824C718.802 272.408 718.674 271.94 718.674 271.42C718.674 270.852 718.834 270.344 719.154 269.896C719.482 269.448 719.922 269.136 720.474 268.96V269.212C720.05 269.028 719.722 268.756 719.49 268.396C719.258 268.028 719.142 267.636 719.142 267.22C719.142 266.78 719.254 266.388 719.478 266.044C719.702 265.7 720.002 265.428 720.378 265.228C720.762 265.02 721.194 264.916 721.674 264.916C722.162 264.916 722.594 265.016 722.97 265.216C723.346 265.408 723.642 265.68 723.858 266.032C724.082 266.376 724.194 266.772 724.194 267.22C724.194 267.668 724.074 268.068 723.834 268.42C723.594 268.764 723.278 269.028 722.886 269.212L722.874 268.96C723.426 269.136 723.862 269.448 724.182 269.896C724.51 270.344 724.674 270.852 724.674 271.42C724.674 271.94 724.542 272.408 724.278 272.824C724.022 273.232 723.666 273.556 723.21 273.796C722.762 274.028 722.25 274.144 721.674 274.144ZM721.674 273.304C722.082 273.304 722.438 273.228 722.742 273.076C723.046 272.916 723.282 272.696 723.45 272.416C723.626 272.128 723.714 271.796 723.714 271.42C723.714 271.044 723.626 270.716 723.45 270.436C723.282 270.148 723.046 269.928 722.742 269.776C722.438 269.616 722.082 269.536 721.674 269.536C721.266 269.536 720.906 269.616 720.594 269.776C720.29 269.928 720.054 270.148 719.886 270.436C719.718 270.716 719.634 271.044 719.634 271.42C719.634 271.796 719.718 272.128 719.886 272.416C720.054 272.696 720.29 272.916 720.594 273.076C720.906 273.228 721.266 273.304 721.674 273.304ZM721.674 268.696C721.97 268.696 722.234 268.636 722.466 268.516C722.698 268.388 722.882 268.216 723.018 268C723.162 267.776 723.234 267.516 723.234 267.22C723.234 266.924 723.162 266.668 723.018 266.452C722.882 266.236 722.698 266.068 722.466 265.948C722.234 265.82 721.97 265.756 721.674 265.756C721.378 265.756 721.11 265.82 720.87 265.948C720.638 266.068 720.45 266.236 720.306 266.452C720.17 266.668 720.102 266.924 720.102 267.22C720.102 267.516 720.17 267.776 720.306 268C720.45 268.216 720.638 268.388 720.87 268.516C721.11 268.636 721.378 268.696 721.674 268.696ZM728.969 274.144C728.505 274.144 728.077 274.064 727.685 273.904C727.293 273.744 726.949 273.516 726.653 273.22C726.365 272.924 726.145 272.572 725.993 272.164L726.761 271.804C726.945 272.268 727.233 272.636 727.625 272.908C728.017 273.172 728.465 273.304 728.969 273.304C729.369 273.304 729.725 273.228 730.037 273.076C730.349 272.916 730.593 272.688 730.769 272.392C730.945 272.096 731.033 271.736 731.033 271.312C731.033 270.888 730.941 270.528 730.757 270.232C730.581 269.936 730.337 269.712 730.025 269.56C729.713 269.408 729.357 269.332 728.957 269.332C728.853 269.332 728.737 269.336 728.609 269.344C728.489 269.352 728.389 269.364 728.309 269.38L728.117 268.96L730.529 265.9H726.413V265.06H731.609V265.9L729.353 268.744L729.233 268.588C729.769 268.604 730.245 268.732 730.661 268.972C731.077 269.204 731.401 269.52 731.633 269.92C731.873 270.32 731.993 270.784 731.993 271.312C731.993 271.84 731.865 272.32 731.609 272.752C731.353 273.176 730.997 273.516 730.541 273.772C730.085 274.02 729.561 274.144 728.969 274.144Z" fill="white"/>
<path d="M798.236 274L798.908 271.66H797.468V270.82H799.148L799.892 268.24H798.452V267.4H800.132L800.804 265.06H801.764L801.092 267.4H803.612L804.284 265.06H805.244L804.572 267.4H806.012V268.24H804.332L803.588 270.82H805.028V271.66H803.348L802.676 274H801.716L802.388 271.66H799.868L799.196 274H798.236ZM800.108 270.82H802.628L803.372 268.24H800.852L800.108 270.82ZM807.536 274V265.06H810.476C811.364 265.06 812.136 265.244 812.792 265.612C813.448 265.972 813.956 266.488 814.316 267.16C814.676 267.824 814.856 268.612 814.856 269.524C814.856 270.428 814.676 271.216 814.316 271.888C813.956 272.56 813.448 273.08 812.792 273.448C812.136 273.816 811.364 274 810.476 274H807.536ZM808.496 273.1H810.476C811.164 273.1 811.76 272.956 812.264 272.668C812.768 272.372 813.156 271.956 813.428 271.42C813.708 270.884 813.848 270.252 813.848 269.524C813.848 268.796 813.708 268.168 813.428 267.64C813.148 267.104 812.756 266.692 812.252 266.404C811.748 266.108 811.156 265.96 810.476 265.96H808.496V273.1ZM816.443 274V265.06H819.383C820.271 265.06 821.043 265.244 821.699 265.612C822.355 265.972 822.863 266.488 823.223 267.16C823.583 267.824 823.763 268.612 823.763 269.524C823.763 270.428 823.583 271.216 823.223 271.888C822.863 272.56 822.355 273.08 821.699 273.448C821.043 273.816 820.271 274 819.383 274H816.443ZM817.403 273.1H819.383C820.071 273.1 820.667 272.956 821.171 272.668C821.675 272.372 822.063 271.956 822.335 271.42C822.615 270.884 822.755 270.252 822.755 269.524C822.755 268.796 822.615 268.168 822.335 267.64C822.055 267.104 821.663 266.692 821.159 266.404C820.655 266.108 820.063 265.96 819.383 265.96H817.403V273.1ZM825.349 274V265.06H828.289C829.177 265.06 829.949 265.244 830.605 265.612C831.261 265.972 831.769 266.488 832.129 267.16C832.489 267.824 832.669 268.612 832.669 269.524C832.669 270.428 832.489 271.216 832.129 271.888C831.769 272.56 831.261 273.08 830.605 273.448C829.949 273.816 829.177 274 828.289 274H825.349ZM826.309 273.1H828.289C828.977 273.1 829.573 272.956 830.077 272.668C830.581 272.372 830.969 271.956 831.241 271.42C831.521 270.884 831.661 270.252 831.661 269.524C831.661 268.796 831.521 268.168 831.241 267.64C830.961 267.104 830.569 266.692 830.065 266.404C829.561 266.108 828.969 265.96 828.289 265.96H826.309V273.1ZM834.255 274V265.06H838.011C838.515 265.06 838.951 265.156 839.319 265.348C839.695 265.532 839.983 265.792 840.183 266.128C840.391 266.464 840.495 266.856 840.495 267.304C840.495 267.768 840.379 268.18 840.147 268.54C839.923 268.892 839.599 269.16 839.175 269.344L839.163 269.056C839.515 269.184 839.815 269.364 840.063 269.596C840.319 269.828 840.515 270.1 840.651 270.412C840.787 270.716 840.855 271.044 840.855 271.396C840.855 272.196 840.599 272.832 840.087 273.304C839.583 273.768 838.895 274 838.023 274H834.255ZM835.215 273.1H838.023C838.591 273.1 839.043 272.952 839.379 272.656C839.723 272.352 839.895 271.936 839.895 271.408C839.895 270.888 839.723 270.476 839.379 270.172C839.043 269.86 838.591 269.704 838.023 269.704H835.215V273.1ZM835.215 268.84H837.939C838.419 268.84 838.803 268.7 839.091 268.42C839.387 268.14 839.535 267.78 839.535 267.34C839.535 266.892 839.387 266.552 839.091 266.32C838.803 266.08 838.419 265.96 837.939 265.96H835.215V268.84ZM842.576 274V265.06H848.096V265.96H843.536V269.068H847.736V269.968H843.536V274H842.576ZM853.592 274V271.888H849.044V271.108L853.592 265.06H854.432V271.108H855.524V271.888H854.432V274H853.592ZM849.776 271.456L849.668 271.108H853.592V265.888L853.892 265.972L849.776 271.456Z" fill="black"/>
<path d="M921.236 274L921.908 271.66H920.468V270.82H922.148L922.892 268.24H921.452V267.4H923.132L923.804 265.06H924.764L924.092 267.4H926.612L927.284 265.06H928.244L927.572 267.4H929.012V268.24H927.332L926.588 270.82H928.028V271.66H926.348L925.676 274H924.716L925.388 271.66H922.868L922.196 274H921.236ZM923.108 270.82H925.628L926.372 268.24H923.852L923.108 270.82ZM933.008 274.144C932.544 274.144 932.116 274.064 931.724 273.904C931.332 273.744 930.988 273.516 930.692 273.22C930.404 272.924 930.184 272.572 930.032 272.164L930.8 271.804C930.984 272.268 931.272 272.636 931.664 272.908C932.056 273.172 932.504 273.304 933.008 273.304C933.408 273.304 933.764 273.228 934.076 273.076C934.388 272.916 934.632 272.688 934.808 272.392C934.984 272.096 935.072 271.736 935.072 271.312C935.072 270.888 934.98 270.528 934.796 270.232C934.62 269.936 934.376 269.712 934.064 269.56C933.752 269.408 933.396 269.332 932.996 269.332C932.892 269.332 932.776 269.336 932.648 269.344C932.528 269.352 932.428 269.364 932.348 269.38L932.156 268.96L934.568 265.9H930.452V265.06H935.648V265.9L933.392 268.744L933.272 268.588C933.808 268.604 934.284 268.732 934.7 268.972C935.116 269.204 935.44 269.52 935.672 269.92C935.912 270.32 936.032 270.784 936.032 271.312C936.032 271.84 935.904 272.32 935.648 272.752C935.392 273.176 935.036 273.516 934.58 273.772C934.124 274.02 933.6 274.144 933.008 274.144ZM937.849 274V265.06H943.609V265.96H938.809V269.068H943.369V269.968H938.809V273.1H943.609V274H937.849ZM947.669 274.144C947.205 274.144 946.777 274.064 946.385 273.904C945.993 273.744 945.649 273.516 945.353 273.22C945.065 272.924 944.845 272.572 944.693 272.164L945.461 271.804C945.645 272.268 945.933 272.636 946.325 272.908C946.717 273.172 947.165 273.304 947.669 273.304C948.069 273.304 948.425 273.228 948.737 273.076C949.049 272.916 949.293 272.688 949.469 272.392C949.645 272.096 949.733 271.736 949.733 271.312C949.733 270.888 949.641 270.528 949.457 270.232C949.281 269.936 949.037 269.712 948.725 269.56C948.413 269.408 948.057 269.332 947.657 269.332C947.553 269.332 947.437 269.336 947.309 269.344C947.189 269.352 947.089 269.364 947.009 269.38L946.817 268.96L949.229 265.9H945.113V265.06H950.309V265.9L948.053 268.744L947.933 268.588C948.469 268.604 948.945 268.732 949.361 268.972C949.777 269.204 950.101 269.52 950.333 269.92C950.573 270.32 950.693 270.784 950.693 271.312C950.693 271.84 950.565 272.32 950.309 272.752C950.053 273.176 949.697 273.516 949.241 273.772C948.785 274.02 948.261 274.144 947.669 274.144ZM953.625 274V265.9H951.945V265.06H954.585V274H953.625ZM959.674 274.144C959.098 274.144 958.582 274.028 958.126 273.796C957.678 273.556 957.322 273.232 957.058 272.824C956.802 272.408 956.674 271.94 956.674 271.42C956.674 270.852 956.834 270.344 957.154 269.896C957.482 269.448 957.922 269.136 958.474 268.96V269.212C958.05 269.028 957.722 268.756 957.49 268.396C957.258 268.028 957.142 267.636 957.142 267.22C957.142 266.78 957.254 266.388 957.478 266.044C957.702 265.7 958.002 265.428 958.378 265.228C958.762 265.02 959.194 264.916 959.674 264.916C960.162 264.916 960.594 265.016 960.97 265.216C961.346 265.408 961.642 265.68 961.858 266.032C962.082 266.376 962.194 266.772 962.194 267.22C962.194 267.668 962.074 268.068 961.834 268.42C961.594 268.764 961.278 269.028 960.886 269.212L960.874 268.96C961.426 269.136 961.862 269.448 962.182 269.896C962.51 270.344 962.674 270.852 962.674 271.42C962.674 271.94 962.542 272.408 962.278 272.824C962.022 273.232 961.666 273.556 961.21 273.796C960.762 274.028 960.25 274.144 959.674 274.144ZM959.674 273.304C960.082 273.304 960.438 273.228 960.742 273.076C961.046 272.916 961.282 272.696 961.45 272.416C961.626 272.128 961.714 271.796 961.714 271.42C961.714 271.044 961.626 270.716 961.45 270.436C961.282 270.148 961.046 269.928 960.742 269.776C960.438 269.616 960.082 269.536 959.674 269.536C959.266 269.536 958.906 269.616 958.594 269.776C958.29 269.928 958.054 270.148 957.886 270.436C957.718 270.716 957.634 271.044 957.634 271.42C957.634 271.796 957.718 272.128 957.886 272.416C958.054 272.696 958.29 272.916 958.594 273.076C958.906 273.228 959.266 273.304 959.674 273.304ZM959.674 268.696C959.97 268.696 960.234 268.636 960.466 268.516C960.698 268.388 960.882 268.216 961.018 268C961.162 267.776 961.234 267.516 961.234 267.22C961.234 266.924 961.162 266.668 961.018 266.452C960.882 266.236 960.698 266.068 960.466 265.948C960.234 265.82 959.97 265.756 959.674 265.756C959.378 265.756 959.11 265.82 958.87 265.948C958.638 266.068 958.45 266.236 958.306 266.452C958.17 266.668 958.102 266.924 958.102 267.22C958.102 267.516 958.17 267.776 958.306 268C958.45 268.216 958.638 268.388 958.87 268.516C959.11 268.636 959.378 268.696 959.674 268.696ZM966.969 274.144C966.505 274.144 966.077 274.064 965.685 273.904C965.293 273.744 964.949 273.516 964.653 273.22C964.365 272.924 964.145 272.572 963.993 272.164L964.761 271.804C964.945 272.268 965.233 272.636 965.625 272.908C966.017 273.172 966.465 273.304 966.969 273.304C967.369 273.304 967.725 273.228 968.037 273.076C968.349 272.916 968.593 272.688 968.769 272.392C968.945 272.096 969.033 271.736 969.033 271.312C969.033 270.888 968.941 270.528 968.757 270.232C968.581 269.936 968.337 269.712 968.025 269.56C967.713 269.408 967.357 269.332 966.957 269.332C966.853 269.332 966.737 269.336 966.609 269.344C966.489 269.352 966.389 269.364 966.309 269.38L966.117 268.96L968.529 265.9H964.413V265.06H969.609V265.9L967.353 268.744L967.233 268.588C967.769 268.604 968.245 268.732 968.661 268.972C969.077 269.204 969.401 269.52 969.633 269.92C969.873 270.32 969.993 270.784 969.993 271.312C969.993 271.84 969.865 272.32 969.609 272.752C969.353 273.176 968.997 273.516 968.541 273.772C968.085 274.02 967.561 274.144 966.969 274.144Z" fill="white"/>
</g>
</g>
<defs>
<filter id="filter0_d_1581_4719" x="0" y="0" width="1060" height="844" filterUnits="userSpaceOnUse" color-interpolation-filters="sRGB">
<feFlood flood-opacity="0" result="BackgroundImageFix"/>
<feColorMatrix in="SourceAlpha" type="matrix" values="0 0 0 0 0 0 0 0 0 0 0 0 0 0 0 0 0 0 127 0" result="hardAlpha"/>
<feOffset/>
<feGaussianBlur stdDeviation="4"/>
<feComposite in2="hardAlpha" operator="out"/>
<feColorMatrix type="matrix" values="0 0 0 0 0 0 0 0 0 0 0 0 0 0 0 0 0 0 0.25 0"/>
<feBlend mode="normal" in2="BackgroundImageFix" result="effect1_dropShadow_1581_4719"/>
<feBlend mode="normal" in="SourceGraphic" in2="effect1_dropShadow_1581_4719" result="shape"/>
</filter>
<filter id="filter1_f_1581_4719" x="184.683" y="-157.321" width="1035.79" height="872.99" filterUnits="userSpaceOnUse" color-interpolation-filters="sRGB">
<feFlood flood-opacity="0" result="BackgroundImageFix"/>
<feBlend mode="normal" in="SourceGraphic" in2="BackgroundImageFix" result="shape"/>
<feGaussianBlur stdDeviation="37.85" result="effect1_foregroundBlur_1581_4719"/>
</filter>
<filter id="filter2_d_1581_4719" x="19.6" y="224.6" width="188.8" height="428.8" filterUnits="userSpaceOnUse" color-interpolation-filters="sRGB">
<feFlood flood-opacity="0" result="BackgroundImageFix"/>
<feColorMatrix in="SourceAlpha" type="matrix" values="0 0 0 0 0 0 0 0 0 0 0 0 0 0 0 0 0 0 127 0" result="hardAlpha"/>
<feOffset dy="17"/>
<feGaussianBlur stdDeviation="19.7"/>
<feComposite in2="hardAlpha" operator="out"/>
<feColorMatrix type="matrix" values="0 0 0 0 0 0 0 0 0 0 0 0 0 0 0 0 0 0 0.15 0"/>
<feBlend mode="normal" in2="BackgroundImageFix" result="effect1_dropShadow_1581_4719"/>
<feBlend mode="normal" in="SourceGraphic" in2="effect1_dropShadow_1581_4719" result="shape"/>
</filter>
<filter id="filter3_d_1581_4719" x="138.6" y="224.6" width="187.8" height="428.8" filterUnits="userSpaceOnUse" color-interpolation-filters="sRGB">
<feFlood flood-opacity="0" result="BackgroundImageFix"/>
<feColorMatrix in="SourceAlpha" type="matrix" values="0 0 0 0 0 0 0 0 0 0 0 0 0 0 0 0 0 0 127 0" result="hardAlpha"/>
<feOffset dy="17"/>
<feGaussianBlur stdDeviation="19.7"/>
<feComposite in2="hardAlpha" operator="out"/>
<feColorMatrix type="matrix" values="0 0 0 0 0 0 0 0 0 0 0 0 0 0 0 0 0 0 0.15 0"/>
<feBlend mode="normal" in2="BackgroundImageFix" result="effect1_dropShadow_1581_4719"/>
<feBlend mode="normal" in="SourceGraphic" in2="effect1_dropShadow_1581_4719" result="shape"/>
</filter>
<filter id="filter4_d_1581_4719" x="257.6" y="224.6" width="187.8" height="428.8" filterUnits="userSpaceOnUse" color-interpolation-filters="sRGB">
<feFlood flood-opacity="0" result="BackgroundImageFix"/>
<feColorMatrix in="SourceAlpha" type="matrix" values="0 0 0 0 0 0 0 0 0 0 0 0 0 0 0 0 0 0 127 0" result="hardAlpha"/>
<feOffset dy="17"/>
<feGaussianBlur stdDeviation="19.7"/>
<feComposite in2="hardAlpha" operator="out"/>
<feColorMatrix type="matrix" values="0 0 0 0 0 0 0 0 0 0 0 0 0 0 0 0 0 0 0.15 0"/>
<feBlend mode="normal" in2="BackgroundImageFix" result="effect1_dropShadow_1581_4719"/>
<feBlend mode="normal" in="SourceGraphic" in2="effect1_dropShadow_1581_4719" result="shape"/>
</filter>
<filter id="filter5_d_1581_4719" x="376.6" y="224.6" width="187.8" height="428.8" filterUnits="userSpaceOnUse" color-interpolation-filters="sRGB">
<feFlood flood-opacity="0" result="BackgroundImageFix"/>
<feColorMatrix in="SourceAlpha" type="matrix" values="0 0 0 0 0 0 0 0 0 0 0 0 0 0 0 0 0 0 127 0" result="hardAlpha"/>
<feOffset dy="17"/>
<feGaussianBlur stdDeviation="19.7"/>
<feComposite in2="hardAlpha" operator="out"/>
<feColorMatrix type="matrix" values="0 0 0 0 0 0 0 0 0 0 0 0 0 0 0 0 0 0 0.15 0"/>
<feBlend mode="normal" in2="BackgroundImageFix" result="effect1_dropShadow_1581_4719"/>
<feBlend mode="normal" in="SourceGraphic" in2="effect1_dropShadow_1581_4719" result="shape"/>
</filter>
<filter id="filter6_d_1581_4719" x="494.6" y="224.6" width="188.8" height="428.8" filterUnits="userSpaceOnUse" color-interpolation-filters="sRGB">
<feFlood flood-opacity="0" result="BackgroundImageFix"/>
<feColorMatrix in="SourceAlpha" type="matrix" values="0 0 0 0 0 0 0 0 0 0 0 0 0 0 0 0 0 0 127 0" result="hardAlpha"/>
<feOffset dy="17"/>
<feGaussianBlur stdDeviation="19.7"/>
<feComposite in2="hardAlpha" operator="out"/>
<feColorMatrix type="matrix" values="0 0 0 0 0 0 0 0 0 0 0 0 0 0 0 0 0 0 0.15 0"/>
<feBlend mode="normal" in2="BackgroundImageFix" result="effect1_dropShadow_1581_4719"/>
<feBlend mode="normal" in="SourceGraphic" in2="effect1_dropShadow_1581_4719" result="shape"/>
</filter>
<filter id="filter7_d_1581_4719" x="732.6" y="224.6" width="188.8" height="428.8" filterUnits="userSpaceOnUse" color-interpolation-filters="sRGB">
<feFlood flood-opacity="0" result="BackgroundImageFix"/>
<feColorMatrix in="SourceAlpha" type="matrix" values="0 0 0 0 0 0 0 0 0 0 0 0 0 0 0 0 0 0 127 0" result="hardAlpha"/>
<feOffset dy="17"/>
<feGaussianBlur stdDeviation="19.7"/>
<feComposite in2="hardAlpha" operator="out"/>
<feColorMatrix type="matrix" values="0 0 0 0 0 0 0 0 0 0 0 0 0 0 0 0 0 0 0.15 0"/>
<feBlend mode="normal" in2="BackgroundImageFix" result="effect1_dropShadow_1581_4719"/>
<feBlend mode="normal" in="SourceGraphic" in2="effect1_dropShadow_1581_4719" result="shape"/>
</filter>
<filter id="filter8_d_1581_4719" x="616" y="223" width="188" height="430" filterUnits="userSpaceOnUse" color-interpolation-filters="sRGB">
<feFlood flood-opacity="0" result="BackgroundImageFix"/>
<feColorMatrix in="SourceAlpha" type="matrix" values="0 0 0 0 0 0 0 0 0 0 0 0 0 0 0 0 0 0 127 0" result="hardAlpha"/>
<feOffset dx="2" dy="16"/>
<feGaussianBlur stdDeviation="20"/>
<feComposite in2="hardAlpha" operator="out"/>
<feColorMatrix type="matrix" values="0 0 0 0 0 0 0 0 0 0 0 0 0 0 0 0 0 0 0.15 0"/>
<feBlend mode="normal" in2="BackgroundImageFix" result="effect1_dropShadow_1581_4719"/>
<feBlend mode="normal" in="SourceGraphic" in2="effect1_dropShadow_1581_4719" result="shape"/>
</filter>
<filter id="filter9_d_1581_4719" x="853" y="223" width="189" height="430" filterUnits="userSpaceOnUse" color-interpolation-filters="sRGB">
<feFlood flood-opacity="0" result="BackgroundImageFix"/>
<feColorMatrix in="SourceAlpha" type="matrix" values="0 0 0 0 0 0 0 0 0 0 0 0 0 0 0 0 0 0 127 0" result="hardAlpha"/>
<feOffset dx="2" dy="16"/>
<feGaussianBlur stdDeviation="20"/>
<feComposite in2="hardAlpha" operator="out"/>
<feColorMatrix type="matrix" values="0 0 0 0 0 0 0 0 0 0 0 0 0 0 0 0 0 0 0.15 0"/>
<feBlend mode="normal" in2="BackgroundImageFix" result="effect1_dropShadow_1581_4719"/>
<feBlend mode="normal" in="SourceGraphic" in2="effect1_dropShadow_1581_4719" result="shape"/>
</filter>
<linearGradient id="paint0_linear_1581_4719" x1="114" y1="603.5" x2="114" y2="247" gradientUnits="userSpaceOnUse">
<stop stop-color="#A674D4"/>
<stop offset="1" stop-color="#F4F3FC"/>
</linearGradient>
<linearGradient id="paint1_linear_1581_4719" x1="232.5" y1="597" x2="232.5" y2="247" gradientUnits="userSpaceOnUse">
<stop stop-color="#4043E1"/>
<stop offset="1" stop-color="#A674D4"/>
</linearGradient>
<linearGradient id="paint2_linear_1581_4719" x1="351.5" y1="247" x2="351.5" y2="597" gradientUnits="userSpaceOnUse">
<stop stop-color="#FFF0CD"/>
<stop offset="1" stop-color="#4043E1"/>
</linearGradient>
<linearGradient id="paint3_linear_1581_4719" x1="465.366" y1="272" x2="469.164" y2="593.483" gradientUnits="userSpaceOnUse">
<stop stop-color="#3E3183"/>
<stop offset="1" stop-color="#C288F8"/>
</linearGradient>
<linearGradient id="paint4_linear_1581_4719" x1="589" y1="597" x2="589" y2="252.5" gradientUnits="userSpaceOnUse">
<stop stop-color="#FFEECD"/>
<stop offset="1" stop-color="#A674D4"/>
</linearGradient>
<linearGradient id="paint5_linear_1581_4719" x1="827" y1="581" x2="827" y2="247" gradientUnits="userSpaceOnUse">
<stop stop-color="#403285"/>
<stop offset="1" stop-color="#DDDBF4"/>
</linearGradient>
<linearGradient id="paint6_linear_1581_4719" x1="707.554" y1="255" x2="715.077" y2="596.992" gradientUnits="userSpaceOnUse">
<stop stop-color="#403285"/>
<stop offset="1" stop-color="#F788F7"/>
</linearGradient>
<linearGradient id="paint7_linear_1581_4719" x1="945.05" y1="247" x2="945.05" y2="597" gradientUnits="userSpaceOnUse">
<stop stop-color="#3E3183"/>
<stop offset="1" stop-color="#513FEF"/>
</linearGradient>
<clipPath id="clip0_1581_4719">
<rect x="8" y="8" width="1044" height="828" rx="8" fill="white"/>
</clipPath>
</defs>
</svg>
